                                                                        S0000001
,,31HOpen CASCADE IGES processor 6.3,13HFilename.iges,                  G0000001
16HOpen CASCADE 6.3,31HOpen CASCADE IGES processor 6.3,32,308,15,308,15,G0000002
,1.,2,2HMM,1,0.01,15H20090709.232648,1E-007,50.,6Hthomas,,11,0,         G0000003
15H20090709.232648,;                                                    G0000004
     186       1       0       0       0       0       0       000000000D0000001
     186       0       0       1       0                               0D0000002
     514       2       0       0       0       0       0       000010000D0000003
     514       0       0       1       1                               0D0000004
     510       3       0       0       0       0       0       000010000D0000005
     510       0       0       1       1                               0D0000006
     190       4       0       0       0       0       0       000010000D0000007
     190       0       0       1       1                               0D0000008
     116       5       0       0       0       0       0       000010400D0000009
     116       0       0       1       0                               0D0000010
     123       6       0       0       0       0       0       000010200D0000011
     123       0       0       1       0                               0D0000012
     123       7       0       0       0       0       0       000010200D0000013
     123       0       0       1       0                               0D0000014
     508       8       0       0       0       0       0       000010000D0000015
     508       0       0       2       1                               0D0000016
     504      10       0       0       0       0       0       000010001D0000017
     504       0       0       3       1                               0D0000018
     110      13       0       0       0       0       0       000010000D0000019
     110       0       0       1       0                               0D0000020
     502      14       0       0       0       0       0       000010000D0000021
     502       0       0       3       1                               0D0000022
     110      17       0       0       0       0       0       000010000D0000023
     110       0       0       1       0                               0D0000024
     110      18       0       0       0       0       0       000010000D0000025
     110       0       0       1       0                               0D0000026
     110      19       0       0       0       0       0       000010000D0000027
     110       0       0       1       0                               0D0000028
     110      20       0       0       0       0       0       000010000D0000029
     110       0       0       1       0                               0D0000030
     110      21       0       0       0       0       0       000010000D0000031
     110       0       0       1       0                               0D0000032
     110      22       0       0       0       0       0       000010000D0000033
     110       0       0       1       0                               0D0000034
     110      23       0       0       0       0       0       000010000D0000035
     110       0       0       1       0                               0D0000036
     110      24       0       0       0       0       0       000010000D0000037
     110       0       0       1       0                               0D0000038
     110      25       0       0       0       0       0       000010000D0000039
     110       0       0       1       0                               0D0000040
     110      26       0       0       0       0       0       000010000D0000041
     110       0       0       1       0                               0D0000042
     110      27       0       0       0       0       0       000010000D0000043
     110       0       0       1       0                               0D0000044
     110      28       0       0       0       0       0       000010000D0000045
     110       0       0       1       0                               0D0000046
     110      29       0       0       0       0       0       000010000D0000047
     110       0       0       1       0                               0D0000048
     110      30       0       0       0       0       0       000010000D0000049
     110       0       0       1       0                               0D0000050
     110      31       0       0       0       0       0       000010000D0000051
     110       0       0       1       0                               0D0000052
     510      32       0       0       0       0       0       000010000D0000053
     510       0       0       1       1                               0D0000054
     190      33       0       0       0       0       0       000010000D0000055
     190       0       0       1       1                               0D0000056
     116      34       0       0       0       0       0       000010400D0000057
     116       0       0       1       0                               0D0000058
     123      35       0       0       0       0       0       000010200D0000059
     123       0       0       1       0                               0D0000060
     123      36       0       0       0       0       0       000010200D0000061
     123       0       0       1       0                               0D0000062
     508      37       0       0       0       0       0       000010000D0000063
     508       0       0       2       1                               0D0000064
     110      39       0       0       0       0       0       000010000D0000065
     110       0       0       1       0                               0D0000066
     110      40       0       0       0       0       0       000010000D0000067
     110       0       0       1       0                               0D0000068
     110      41       0       0       0       0       0       000010000D0000069
     110       0       0       1       0                               0D0000070
     110      42       0       0       0       0       0       000010000D0000071
     110       0       0       1       0                               0D0000072
     510      43       0       0       0       0       0       000010000D0000073
     510       0       0       1       1                               0D0000074
     190      44       0       0       0       0       0       000010000D0000075
     190       0       0       1       1                               0D0000076
     116      45       0       0       0       0       0       000010400D0000077
     116       0       0       1       0                               0D0000078
     123      46       0       0       0       0       0       000010200D0000079
     123       0       0       1       0                               0D0000080
     123      47       0       0       0       0       0       000010200D0000081
     123       0       0       1       0                               0D0000082
     508      48       0       0       0       0       0       000010000D0000083
     508       0       0       2       1                               0D0000084
     110      50       0       0       0       0       0       000010000D0000085
     110       0       0       1       0                               0D0000086
     110      51       0       0       0       0       0       000010000D0000087
     110       0       0       1       0                               0D0000088
     110      52       0       0       0       0       0       000010000D0000089
     110       0       0       1       0                               0D0000090
     110      53       0       0       0       0       0       000010000D0000091
     110       0       0       1       0                               0D0000092
     510      54       0       0       0       0       0       000010000D0000093
     510       0       0       1       1                               0D0000094
     190      55       0       0       0       0       0       000010000D0000095
     190       0       0       1       1                               0D0000096
     116      56       0       0       0       0       0       000010400D0000097
     116       0       0       1       0                               0D0000098
     123      57       0       0       0       0       0       000010200D0000099
     123       0       0       1       0                               0D0000100
     123      58       0       0       0       0       0       000010200D0000101
     123       0       0       1       0                               0D0000102
     508      59       0       0       0       0       0       000010000D0000103
     508       0       0       2       1                               0D0000104
     110      61       0       0       0       0       0       000010000D0000105
     110       0       0       1       0                               0D0000106
     110      62       0       0       0       0       0       000010000D0000107
     110       0       0       1       0                               0D0000108
     110      63       0       0       0       0       0       000010000D0000109
     110       0       0       1       0                               0D0000110
     110      64       0       0       0       0       0       000010000D0000111
     110       0       0       1       0                               0D0000112
     510      65       0       0       0       0       0       000010000D0000113
     510       0       0       1       1                               0D0000114
     190      66       0       0       0       0       0       000010000D0000115
     190       0       0       1       1                               0D0000116
     116      67       0       0       0       0       0       000010400D0000117
     116       0       0       1       0                               0D0000118
     123      68       0       0       0       0       0       000010200D0000119
     123       0       0       1       0                               0D0000120
     123      69       0       0       0       0       0       000010200D0000121
     123       0       0       1       0                               0D0000122
     508      70       0       0       0       0       0       000010000D0000123
     508       0       0       2       1                               0D0000124
     110      72       0       0       0       0       0       000010000D0000125
     110       0       0       1       0                               0D0000126
     110      73       0       0       0       0       0       000010000D0000127
     110       0       0       1       0                               0D0000128
     110      74       0       0       0       0       0       000010000D0000129
     110       0       0       1       0                               0D0000130
     110      75       0       0       0       0       0       000010000D0000131
     110       0       0       1       0                               0D0000132
     510      76       0       0       0       0       0       000010000D0000133
     510       0       0       1       1                               0D0000134
     190      77       0       0       0       0       0       000010000D0000135
     190       0       0       1       1                               0D0000136
     116      78       0       0       0       0       0       000010400D0000137
     116       0       0       1       0                               0D0000138
     123      79       0       0       0       0       0       000010200D0000139
     123       0       0       1       0                               0D0000140
     123      80       0       0       0       0       0       000010200D0000141
     123       0       0       1       0                               0D0000142
     508      81       0       0       0       0       0       000010000D0000143
     508       0       0       2       1                               0D0000144
     110      83       0       0       0       0       0       000010000D0000145
     110       0       0       1       0                               0D0000146
     110      84       0       0       0       0       0       000010000D0000147
     110       0       0       1       0                               0D0000148
     110      85       0       0       0       0       0       000010000D0000149
     110       0       0       1       0                               0D0000150
     110      86       0       0       0       0       0       000010000D0000151
     110       0       0       1       0                               0D0000152
     186      87       0       0       0       0       0       000000000D0000153
     186       0       0       1       0                               0D0000154
     514      88       0       0       0       0       0       000010000D0000155
     514       0       0       1       1                               0D0000156
     510      89       0       0       0       0       0       000010000D0000157
     510       0       0       1       1                               0D0000158
     196      90       0       0       0       0       0       000010000D0000159
     196       0       0       1       1                               0D0000160
     116      91       0       0       0       0       0       000010400D0000161
     116       0       0       1       0                               0D0000162
     123      92       0       0       0       0       0       000010200D0000163
     123       0       0       1       0                               0D0000164
     123      93       0       0       0       0       0       000010200D0000165
     123       0       0       1       0                               0D0000166
     508      94       0       0       0       0       0       000010000D0000167
     508       0       0       2       1                               0D0000168
     502      96       0       0       0       0       0       000010000D0000169
     502       0       0       2       1                               0D0000170
     110      98       0       0       0       0       0       000010000D0000171
     110       0       0       1       0                               0D0000172
     504      99       0       0       0       0       0       000010001D0000173
     504       0       0       1       1                               0D0000174
     100     100       0       0       0       0     177       000010000D0000175
     100       0       0       2       0                               0D0000176
     124     102       0       0       0       0       0       000000000D0000177
     124       0       0       2       0                               0D0000178
     110     104       0       0       0       0       0       000010000D0000179
     110       0       0       1       0                               0D0000180
     110     105       0       0       0       0       0       000010000D0000181
     110       0       0       1       0                               0D0000182
     110     106       0       0       0       0       0       000010000D0000183
     110       0       0       1       0                               0D0000184
186,3,1,0;                                                       0000001P0000001
514,6,5,0,53,1,73,0,93,1,113,0,133,1;                            0000003P0000002
510,7,1,1,15;                                                    0000005P0000003
190,9,11,13;                                                     0000007P0000004
116,0.E+000,0.E+000,0.E+000,0;                                   0000009P0000005
123,1.,0.E+000,0.E+000;                                          0000011P0000006
123,0.E+000,0.E+000,1.;                                          0000013P0000007
508,4,0,17,1,0,1,0,45,0,17,2,1,1,0,47,0,17,3,1,1,0,49,0,17,4,0,  0000015P0000008
1,0,51;                                                          0000015P0000009
504,12,19,21,1,21,2,23,21,1,21,3,25,21,3,21,4,27,21,2,21,4,29,   0000017P0000010
21,5,21,6,31,21,5,21,7,33,21,7,21,8,35,21,6,21,8,37,21,1,21,5,   0000017P0000011
39,21,2,21,6,41,21,3,21,7,43,21,4,21,8;                          0000017P0000012
110,0.E+000,0.E+000,0.E+000,0.E+000,0.E+000,50.;                 0000019P0000013
502,8,0.E+000,0.E+000,0.E+000,0.E+000,0.E+000,50.,0.E+000,50.,   0000021P0000014
0.E+000,0.E+000,50.,50.,50.,0.E+000,0.E+000,50.,0.E+000,50.,50., 0000021P0000015
50.,0.E+000,50.,50.,50.;                                         0000021P0000016
110,0.E+000,0.E+000,0.E+000,0.E+000,50.,0.E+000;                 0000023P0000017
110,0.E+000,50.,0.E+000,0.E+000,50.,50.;                         0000025P0000018
110,0.E+000,0.E+000,50.,0.E+000,50.,50.;                         0000027P0000019
110,50.,0.E+000,0.E+000,50.,0.E+000,50.;                         0000029P0000020
110,50.,0.E+000,0.E+000,50.,50.,0.E+000;                         0000031P0000021
110,50.,50.,0.E+000,50.,50.,50.;                                 0000033P0000022
110,50.,0.E+000,50.,50.,50.,50.;                                 0000035P0000023
110,0.E+000,0.E+000,0.E+000,50.,0.E+000,0.E+000;                 0000037P0000024
110,0.E+000,0.E+000,50.,50.,0.E+000,50.;                         0000039P0000025
110,0.E+000,50.,0.E+000,50.,50.,0.E+000;                         0000041P0000026
110,0.E+000,50.,50.,50.,50.,50.;                                 0000043P0000027
110,50.,0.E+000,0.E+000,0.E+000,0.E+000,0.E+000;                 0000045P0000028
110,0.E+000,0.E+000,0.E+000,0.E+000,-50.,0.E+000;                0000047P0000029
110,0.E+000,-50.,0.E+000,50.,-50.,0.E+000;                       0000049P0000030
110,50.,-50.,0.E+000,50.,0.E+000,0.E+000;                        0000051P0000031
510,55,1,1,63;                                                   0000053P0000032
190,57,59,61;                                                    0000055P0000033
116,50.,0.E+000,0.E+000,0;                                       0000057P0000034
123,1.,0.E+000,0.E+000;                                          0000059P0000035
123,0.E+000,0.E+000,1.;                                          0000061P0000036
508,4,0,17,5,0,1,0,65,0,17,6,1,1,0,67,0,17,7,1,1,0,69,0,17,8,0,  0000063P0000037
1,0,71;                                                          0000063P0000038
110,50.,0.E+000,0.E+000,0.E+000,0.E+000,0.E+000;                 0000065P0000039
110,0.E+000,0.E+000,0.E+000,0.E+000,-50.,0.E+000;                0000067P0000040
110,0.E+000,-50.,0.E+000,50.,-50.,0.E+000;                       0000069P0000041
110,50.,-50.,0.E+000,50.,0.E+000,0.E+000;                        0000071P0000042
510,75,1,1,83;                                                   0000073P0000043
190,77,79,81;                                                    0000075P0000044
116,0.E+000,0.E+000,0.E+000,0;                                   0000077P0000045
123,0.E+000,1.,0.E+000;                                          0000079P0000046
123,0.E+000,0.E+000,1.;                                          0000081P0000047
508,4,0,17,9,0,1,0,85,0,17,1,1,1,0,87,0,17,10,1,1,0,89,0,17,5,0, 0000083P0000048
1,0,91;                                                          0000083P0000049
110,0.E+000,50.,0.E+000,0.E+000,0.E+000,0.E+000;                 0000085P0000050
110,0.E+000,0.E+000,0.E+000,50.,0.E+000,0.E+000;                 0000087P0000051
110,50.,0.E+000,0.E+000,50.,50.,0.E+000;                         0000089P0000052
110,50.,50.,0.E+000,0.E+000,50.,0.E+000;                         0000091P0000053
510,95,1,1,103;                                                  0000093P0000054
190,97,99,101;                                                   0000095P0000055
116,0.E+000,50.,0.E+000,0;                                       0000097P0000056
123,0.E+000,1.,0.E+000;                                          0000099P0000057
123,0.E+000,0.E+000,1.;                                          0000101P0000058
508,4,0,17,11,0,1,0,105,0,17,3,1,1,0,107,0,17,12,1,1,0,109,0,17, 0000103P0000059
7,0,1,0,111;                                                     0000103P0000060
110,0.E+000,50.,0.E+000,0.E+000,0.E+000,0.E+000;                 0000105P0000061
110,0.E+000,0.E+000,0.E+000,50.,0.E+000,0.E+000;                 0000107P0000062
110,50.,0.E+000,0.E+000,50.,50.,0.E+000;                         0000109P0000063
110,50.,50.,0.E+000,0.E+000,50.,0.E+000;                         0000111P0000064
510,115,1,1,123;                                                 0000113P0000065
190,117,119,121;                                                 0000115P0000066
116,0.E+000,0.E+000,0.E+000,0;                                   0000117P0000067
123,0.E+000,0.E+000,1.;                                          0000119P0000068
123,1.,0.E+000,0.E+000;                                          0000121P0000069
508,4,0,17,2,0,1,0,125,0,17,9,1,1,0,127,0,17,6,1,1,0,129,0,17,   0000123P0000070
11,0,1,0,131;                                                    0000123P0000071
110,0.E+000,50.,0.E+000,0.E+000,0.E+000,0.E+000;                 0000125P0000072
110,0.E+000,0.E+000,0.E+000,50.,0.E+000,0.E+000;                 0000127P0000073
110,50.,0.E+000,0.E+000,50.,50.,0.E+000;                         0000129P0000074
110,50.,50.,0.E+000,0.E+000,50.,0.E+000;                         0000131P0000075
510,135,1,1,143;                                                 0000133P0000076
190,137,139,141;                                                 0000135P0000077
116,0.E+000,0.E+000,50.,0;                                       0000137P0000078
123,0.E+000,0.E+000,1.;                                          0000139P0000079
123,1.,0.E+000,0.E+000;                                          0000141P0000080
508,4,0,17,4,0,1,0,145,0,17,10,1,1,0,147,0,17,8,1,1,0,149,0,17,  0000143P0000081
12,0,1,0,151;                                                    0000143P0000082
110,0.E+000,50.,0.E+000,0.E+000,0.E+000,0.E+000;                 0000145P0000083
110,0.E+000,0.E+000,0.E+000,50.,0.E+000,0.E+000;                 0000147P0000084
110,50.,0.E+000,0.E+000,50.,50.,0.E+000;                         0000149P0000085
110,50.,50.,0.E+000,0.E+000,50.,0.E+000;                         0000151P0000086
186,155,1,0;                                                     0000153P0000087
514,1,157,1;                                                     0000155P0000088
510,159,1,1,167;                                                 0000157P0000089
196,161,20.,163,165;                                             0000159P0000090
116,0.E+000,0.E+000,0.E+000,0;                                   0000161P0000091
123,0.E+000,0.E+000,1.;                                          0000163P0000092
123,1.,0.E+000,0.E+000;                                          0000165P0000093
508,4,1,169,1,0,1,0,171,0,173,1,0,1,0,179,1,169,2,1,1,0,181,0,   0000167P0000094
173,1,1,1,0,183;                                                 0000167P0000095
502,2,1.224606354E-015,-2.999321444E-031,20.,1.224606354E-015,   0000169P0000096
-2.999321444E-031,-20.;                                          0000169P0000097
110,360.,90.,0.E+000,0.E+000,90.,0.E+000;                        0000171P0000098
504,1,175,169,2,169,1;                                           0000173P0000099
100,0.E+000,0.E+000,0.E+000,-3.673819061E-015,-20.,              0000175P0000100
6.123031769E-015,20.;                                            0000175P0000101
124,1.,0.E+000,-2.449212708E-016,0.E+000,-2.449212708E-016,      0000177P0000102
0.E+000,-1.,0.E+000,0.E+000,1.,0.E+000,0.E+000;                  0000177P0000103
110,0.E+000,90.,0.E+000,0.E+000,-90.,0.E+000;                    0000179P0000104
110,0.E+000,-90.,0.E+000,360.,-90.,0.E+000;                      0000181P0000105
110,360.,-90.,0.E+000,360.,90.,0.E+000;                          0000183P0000106
S      1G      4D    184P    106                                        T0000001
