solid ascii
  facet normal 0.000000e+000 0.000000e+000 -1.000000e+000
    outer loop
      vertex   1.494506e+001 1.045494e+001 0.000000e+000
      vertex   2.540000e+001 0.000000e+000 0.000000e+000
      vertex   1.391502e+001 9.766683e+000 0.000000e+000
    endloop
  endfacet
  facet normal 0.000000e+000 1.000000e+000 -0.000000e+000
    outer loop
      vertex   1.926416e+001 2.540000e+001 1.211096e+001
      vertex   1.926416e+001 2.540000e+001 0.000000e+000
      vertex   1.818150e+001 2.540000e+001 1.273604e+001
    endloop
  endfacet
  facet normal 0.000000e+000 0.000000e+000 -1.000000e+000
    outer loop
      vertex   1.045494e+001 1.494506e+001 0.000000e+000
      vertex   9.766683e+000 1.391502e+001 0.000000e+000
      vertex   -6.938894e-015 1.904285e+001 0.000000e+000
    endloop
  endfacet
  facet normal 0.000000e+000 1.000000e+000 0.000000e+000
    outer loop
      vertex   1.270000e+001 2.540000e+001 2.540000e+001
      vertex   1.818150e+001 2.540000e+001 1.273604e+001
      vertex   1.270000e+001 2.540000e+001 0.000000e+000
    endloop
  endfacet
  facet normal 0.000000e+000 0.000000e+000 -1.000000e+000
    outer loop
      vertex   1.563332e+001 1.148498e+001 0.000000e+000
      vertex   2.540000e+001 0.000000e+000 0.000000e+000
      vertex   1.494506e+001 1.045494e+001 0.000000e+000
    endloop
  endfacet
  facet normal -9.807853e-001 1.950901e-001 0.000000e+000
    outer loop
      vertex   1.575416e+001 1.209249e+001 1.270000e+001
      vertex   1.563332e+001 1.148498e+001 0.000000e+000
      vertex   1.563332e+001 1.148498e+001 2.540000e+001
    endloop
  endfacet
  facet normal -9.807854e-001 1.950899e-001 7.324893e-009
    outer loop
      vertex   1.575416e+001 1.209249e+001 1.270000e+001
      vertex   1.587500e+001 1.270000e+001 0.000000e+000
      vertex   1.563332e+001 1.148498e+001 0.000000e+000
    endloop
  endfacet
  facet normal -9.807854e-001 1.950898e-001 0.000000e+000
    outer loop
      vertex   1.575416e+001 1.209249e+001 1.270000e+001
      vertex   1.587500e+001 1.270000e+001 2.540000e+001
      vertex   1.587500e+001 1.270000e+001 0.000000e+000
    endloop
  endfacet
  facet normal 0.000000e+000 0.000000e+000 -1.000000e+000
    outer loop
      vertex   1.587500e+001 1.270000e+001 0.000000e+000
      vertex   2.540000e+001 0.000000e+000 0.000000e+000
      vertex   1.563332e+001 1.148498e+001 0.000000e+000
    endloop
  endfacet
  facet normal -8.314693e-001 5.555707e-001 0.000000e+000
    outer loop
      vertex   1.528919e+001 1.096996e+001 1.270000e+001
      vertex   1.494506e+001 1.045494e+001 0.000000e+000
      vertex   1.494506e+001 1.045494e+001 2.540000e+001
    endloop
  endfacet
  facet normal -8.314692e-001 5.555709e-001 -1.035894e-008
    outer loop
      vertex   1.528919e+001 1.096996e+001 1.270000e+001
      vertex   1.563332e+001 1.148498e+001 0.000000e+000
      vertex   1.494506e+001 1.045494e+001 0.000000e+000
    endloop
  endfacet
  facet normal -8.314690e-001 5.555711e-001 0.000000e+000
    outer loop
      vertex   1.528919e+001 1.096996e+001 1.270000e+001
      vertex   1.563332e+001 1.148498e+001 2.540000e+001
      vertex   1.563332e+001 1.148498e+001 0.000000e+000
    endloop
  endfacet
  facet normal 0.000000e+000 0.000000e+000 -1.000000e+000
    outer loop
      vertex   1.563332e+001 1.391502e+001 0.000000e+000
      vertex   2.540000e+001 0.000000e+000 0.000000e+000
      vertex   1.587500e+001 1.270000e+001 0.000000e+000
    endloop
  endfacet
  facet normal -5.555700e-001 8.314697e-001 0.000000e+000
    outer loop
      vertex   1.443004e+001 1.011081e+001 1.270000e+001
      vertex   1.391502e+001 9.766683e+000 0.000000e+000
      vertex   1.391502e+001 9.766683e+000 2.540000e+001
    endloop
  endfacet
  facet normal -5.555704e-001 8.314695e-001 2.085958e-008
    outer loop
      vertex   1.443004e+001 1.011081e+001 1.270000e+001
      vertex   1.494506e+001 1.045494e+001 0.000000e+000
      vertex   1.391502e+001 9.766683e+000 0.000000e+000
    endloop
  endfacet
  facet normal -5.555707e-001 8.314693e-001 0.000000e+000
    outer loop
      vertex   1.443004e+001 1.011081e+001 1.270000e+001
      vertex   1.494506e+001 1.045494e+001 2.540000e+001
      vertex   1.494506e+001 1.045494e+001 0.000000e+000
    endloop
  endfacet
  facet normal 0.000000e+000 0.000000e+000 -1.000000e+000
    outer loop
      vertex   1.494506e+001 1.494506e+001 0.000000e+000
      vertex   2.540000e+001 0.000000e+000 0.000000e+000
      vertex   1.563332e+001 1.391502e+001 0.000000e+000
    endloop
  endfacet
  facet normal -1.950913e-001 9.807851e-001 0.000000e+000
    outer loop
      vertex   1.330751e+001 9.645842e+000 1.270000e+001
      vertex   1.270000e+001 9.525000e+000 0.000000e+000
      vertex   1.270000e+001 9.525000e+000 2.540000e+001
    endloop
  endfacet
  facet normal -1.950907e-001 9.807852e-001 -2.949987e-008
    outer loop
      vertex   1.330751e+001 9.645842e+000 1.270000e+001
      vertex   1.391502e+001 9.766683e+000 0.000000e+000
      vertex   1.270000e+001 9.525000e+000 0.000000e+000
    endloop
  endfacet
  facet normal -1.950901e-001 9.807853e-001 0.000000e+000
    outer loop
      vertex   1.330751e+001 9.645842e+000 1.270000e+001
      vertex   1.391502e+001 9.766683e+000 2.540000e+001
      vertex   1.391502e+001 9.766683e+000 0.000000e+000
    endloop
  endfacet
  facet normal 0.000000e+000 0.000000e+000 -1.000000e+000
    outer loop
      vertex   1.270000e+001 1.904285e+001 0.000000e+000
      vertex   1.494506e+001 1.494506e+001 0.000000e+000
      vertex   1.391502e+001 1.563332e+001 0.000000e+000
    endloop
  endfacet
  facet normal 1.950901e-001 9.807853e-001 -0.000000e+000
    outer loop
      vertex   1.209249e+001 9.645842e+000 1.270000e+001
      vertex   1.148498e+001 9.766683e+000 0.000000e+000
      vertex   1.148498e+001 9.766683e+000 2.540000e+001
    endloop
  endfacet
  facet normal 1.950907e-001 9.807852e-001 -2.949987e-008
    outer loop
      vertex   1.209249e+001 9.645842e+000 1.270000e+001
      vertex   1.270000e+001 9.525000e+000 0.000000e+000
      vertex   1.148498e+001 9.766683e+000 0.000000e+000
    endloop
  endfacet
  facet normal 1.950913e-001 9.807851e-001 0.000000e+000
    outer loop
      vertex   1.209249e+001 9.645842e+000 1.270000e+001
      vertex   1.270000e+001 9.525000e+000 2.540000e+001
      vertex   1.270000e+001 9.525000e+000 0.000000e+000
    endloop
  endfacet
  facet normal 0.000000e+000 0.000000e+000 -1.000000e+000
    outer loop
      vertex   1.270000e+001 2.540000e+001 0.000000e+000
      vertex   2.540000e+001 0.000000e+000 0.000000e+000
      vertex   1.270000e+001 1.904285e+001 0.000000e+000
    endloop
  endfacet
  facet normal 5.555707e-001 8.314693e-001 -0.000000e+000
    outer loop
      vertex   1.096996e+001 1.011081e+001 1.270000e+001
      vertex   1.045494e+001 1.045494e+001 0.000000e+000
      vertex   1.045494e+001 1.045494e+001 2.540000e+001
    endloop
  endfacet
  facet normal 5.555704e-001 8.314695e-001 2.085958e-008
    outer loop
      vertex   1.096996e+001 1.011081e+001 1.270000e+001
      vertex   1.148498e+001 9.766683e+000 0.000000e+000
      vertex   1.045494e+001 1.045494e+001 0.000000e+000
    endloop
  endfacet
  facet normal 5.555700e-001 8.314697e-001 0.000000e+000
    outer loop
      vertex   1.096996e+001 1.011081e+001 1.270000e+001
      vertex   1.148498e+001 9.766683e+000 2.540000e+001
      vertex   1.148498e+001 9.766683e+000 0.000000e+000
    endloop
  endfacet
  facet normal 0.000000e+000 0.000000e+000 -1.000000e+000
    outer loop
      vertex   1.926416e+001 2.540000e+001 0.000000e+000
      vertex   2.540000e+001 1.906099e+001 0.000000e+000
      vertex   1.270000e+001 2.540000e+001 0.000000e+000
    endloop
  endfacet
  facet normal 8.314697e-001 5.555700e-001 -0.000000e+000
    outer loop
      vertex   1.011081e+001 1.096996e+001 1.270000e+001
      vertex   9.766683e+000 1.148498e+001 0.000000e+000
      vertex   9.766683e+000 1.148498e+001 2.540000e+001
    endloop
  endfacet
  facet normal 8.314695e-001 5.555704e-001 2.085958e-008
    outer loop
      vertex   1.011081e+001 1.096996e+001 1.270000e+001
      vertex   1.045494e+001 1.045494e+001 0.000000e+000
      vertex   9.766683e+000 1.148498e+001 0.000000e+000
    endloop
  endfacet
  facet normal 8.314693e-001 5.555707e-001 0.000000e+000
    outer loop
      vertex   1.011081e+001 1.096996e+001 1.270000e+001
      vertex   1.045494e+001 1.045494e+001 2.540000e+001
      vertex   1.045494e+001 1.045494e+001 0.000000e+000
    endloop
  endfacet
  facet normal 0.000000e+000 -1.000000e+000 -0.000000e+000
    outer loop
      vertex   6.295020e+000 0.000000e+000 9.766683e+000
      vertex   5.080000e+000 0.000000e+000 9.525000e+000
      vertex   0.000000e+000 0.000000e+000 0.000000e+000
    endloop
  endfacet
  facet normal 9.807851e-001 1.950913e-001 -0.000000e+000
    outer loop
      vertex   9.645842e+000 1.209249e+001 1.270000e+001
      vertex   9.525000e+000 1.270000e+001 0.000000e+000
      vertex   9.525000e+000 1.270000e+001 2.540000e+001
    endloop
  endfacet
  facet normal 9.807852e-001 1.950907e-001 -2.949987e-008
    outer loop
      vertex   9.645842e+000 1.209249e+001 1.270000e+001
      vertex   9.766683e+000 1.148498e+001 0.000000e+000
      vertex   9.525000e+000 1.270000e+001 0.000000e+000
    endloop
  endfacet
  facet normal 9.807853e-001 1.950901e-001 0.000000e+000
    outer loop
      vertex   9.645842e+000 1.209249e+001 1.270000e+001
      vertex   9.766683e+000 1.148498e+001 2.540000e+001
      vertex   9.766683e+000 1.148498e+001 0.000000e+000
    endloop
  endfacet
  facet normal 0.000000e+000 -1.000000e+000 0.000000e+000
    outer loop
      vertex   0.000000e+000 0.000000e+000 2.540000e+001
      vertex   0.000000e+000 0.000000e+000 0.000000e+000
      vertex   1.905000e+000 0.000000e+000 1.270000e+001
    endloop
  endfacet
  facet normal 9.807853e-001 -1.950901e-001 0.000000e+000
    outer loop
      vertex   9.645842e+000 1.330751e+001 1.270000e+001
      vertex   9.766683e+000 1.391502e+001 0.000000e+000
      vertex   9.766683e+000 1.391502e+001 2.540000e+001
    endloop
  endfacet
  facet normal 9.807852e-001 -1.950907e-001 -2.949987e-008
    outer loop
      vertex   9.645842e+000 1.330751e+001 1.270000e+001
      vertex   9.525000e+000 1.270000e+001 0.000000e+000
      vertex   9.766683e+000 1.391502e+001 0.000000e+000
    endloop
  endfacet
  facet normal 9.807851e-001 -1.950913e-001 0.000000e+000
    outer loop
      vertex   9.645842e+000 1.330751e+001 1.270000e+001
      vertex   9.525000e+000 1.270000e+001 2.540000e+001
      vertex   9.525000e+000 1.270000e+001 0.000000e+000
    endloop
  endfacet
  facet normal 0.000000e+000 -1.000000e+000 0.000000e+000
    outer loop
      vertex   2.540000e+001 0.000000e+000 8.568434e+000
      vertex   1.818150e+001 0.000000e+000 1.273604e+001
      vertex   2.540000e+001 0.000000e+000 0.000000e+000
    endloop
  endfacet
  facet normal 8.314693e-001 -5.555707e-001 0.000000e+000
    outer loop
      vertex   1.011081e+001 1.443004e+001 1.270000e+001
      vertex   1.045494e+001 1.494506e+001 0.000000e+000
      vertex   1.045494e+001 1.494506e+001 2.540000e+001
    endloop
  endfacet
  facet normal 8.314695e-001 -5.555704e-001 2.085958e-008
    outer loop
      vertex   1.011081e+001 1.443004e+001 1.270000e+001
      vertex   9.766683e+000 1.391502e+001 0.000000e+000
      vertex   1.045494e+001 1.494506e+001 0.000000e+000
    endloop
  endfacet
  facet normal 8.314697e-001 -5.555700e-001 0.000000e+000
    outer loop
      vertex   1.011081e+001 1.443004e+001 1.270000e+001
      vertex   9.766683e+000 1.391502e+001 2.540000e+001
      vertex   9.766683e+000 1.391502e+001 0.000000e+000
    endloop
  endfacet
  facet normal 0.000000e+000 -1.000000e+000 0.000000e+000
    outer loop
      vertex   0.000000e+000 0.000000e+000 2.540000e+001
      vertex   7.325064e+000 0.000000e+000 1.494506e+001
      vertex   2.540000e+001 0.000000e+000 0.000000e+000
    endloop
  endfacet
  facet normal 5.555711e-001 -8.314690e-001 0.000000e+000
    outer loop
      vertex   1.096996e+001 1.528919e+001 1.270000e+001
      vertex   1.148498e+001 1.563332e+001 0.000000e+000
      vertex   1.148498e+001 1.563332e+001 2.540000e+001
    endloop
  endfacet
  facet normal 5.555709e-001 -8.314692e-001 -1.035894e-008
    outer loop
      vertex   1.096996e+001 1.528919e+001 1.270000e+001
      vertex   1.045494e+001 1.494506e+001 0.000000e+000
      vertex   1.148498e+001 1.563332e+001 0.000000e+000
    endloop
  endfacet
  facet normal 5.555707e-001 -8.314693e-001 0.000000e+000
    outer loop
      vertex   1.096996e+001 1.528919e+001 1.270000e+001
      vertex   1.045494e+001 1.494506e+001 2.540000e+001
      vertex   1.045494e+001 1.494506e+001 0.000000e+000
    endloop
  endfacet
  facet normal 0.000000e+000 -1.000000e+000 0.000000e+000
    outer loop
      vertex   7.325064e+000 0.000000e+000 1.494506e+001
      vertex   8.013317e+000 0.000000e+000 1.391502e+001
      vertex   2.540000e+001 0.000000e+000 0.000000e+000
    endloop
  endfacet
  facet normal 1.950898e-001 -9.807854e-001 0.000000e+000
    outer loop
      vertex   1.209249e+001 1.575416e+001 1.270000e+001
      vertex   1.270000e+001 1.587500e+001 0.000000e+000
      vertex   1.270000e+001 1.587500e+001 2.540000e+001
    endloop
  endfacet
  facet normal 1.950899e-001 -9.807854e-001 7.324893e-009
    outer loop
      vertex   1.209249e+001 1.575416e+001 1.270000e+001
      vertex   1.148498e+001 1.563332e+001 0.000000e+000
      vertex   1.270000e+001 1.587500e+001 0.000000e+000
    endloop
  endfacet
  facet normal 1.950901e-001 -9.807853e-001 0.000000e+000
    outer loop
      vertex   1.209249e+001 1.575416e+001 1.270000e+001
      vertex   1.148498e+001 1.563332e+001 2.540000e+001
      vertex   1.148498e+001 1.563332e+001 0.000000e+000
    endloop
  endfacet
  facet normal 0.000000e+000 -1.000000e+000 -0.000000e+000
    outer loop
      vertex   2.540000e+001 0.000000e+000 0.000000e+000
      vertex   7.325064e+000 0.000000e+000 1.045494e+001
      vertex   0.000000e+000 0.000000e+000 0.000000e+000
    endloop
  endfacet
  facet normal -1.950901e-001 -9.807853e-001 0.000000e+000
    outer loop
      vertex   1.330751e+001 1.575416e+001 1.270000e+001
      vertex   1.391502e+001 1.563332e+001 0.000000e+000
      vertex   1.391502e+001 1.563332e+001 2.540000e+001
    endloop
  endfacet
  facet normal -1.950899e-001 -9.807854e-001 7.324893e-009
    outer loop
      vertex   1.330751e+001 1.575416e+001 1.270000e+001
      vertex   1.270000e+001 1.587500e+001 0.000000e+000
      vertex   1.391502e+001 1.563332e+001 0.000000e+000
    endloop
  endfacet
  facet normal -1.950898e-001 -9.807854e-001 -0.000000e+000
    outer loop
      vertex   1.330751e+001 1.575416e+001 1.270000e+001
      vertex   1.270000e+001 1.587500e+001 2.540000e+001
      vertex   1.270000e+001 1.587500e+001 0.000000e+000
    endloop
  endfacet
  facet normal 0.000000e+000 -1.000000e+000 -0.000000e+000
    outer loop
      vertex   2.540000e+001 0.000000e+000 0.000000e+000
      vertex   8.013317e+000 0.000000e+000 1.148498e+001
      vertex   7.325064e+000 0.000000e+000 1.045494e+001
    endloop
  endfacet
  facet normal -5.555707e-001 -8.314693e-001 0.000000e+000
    outer loop
      vertex   1.443004e+001 1.528919e+001 1.270000e+001
      vertex   1.494506e+001 1.494506e+001 0.000000e+000
      vertex   1.494506e+001 1.494506e+001 2.540000e+001
    endloop
  endfacet
  facet normal -5.555709e-001 -8.314692e-001 -1.035894e-008
    outer loop
      vertex   1.443004e+001 1.528919e+001 1.270000e+001
      vertex   1.391502e+001 1.563332e+001 0.000000e+000
      vertex   1.494506e+001 1.494506e+001 0.000000e+000
    endloop
  endfacet
  facet normal -5.555711e-001 -8.314690e-001 -0.000000e+000
    outer loop
      vertex   1.443004e+001 1.528919e+001 1.270000e+001
      vertex   1.391502e+001 1.563332e+001 2.540000e+001
      vertex   1.391502e+001 1.563332e+001 0.000000e+000
    endloop
  endfacet
  facet normal 0.000000e+000 -1.000000e+000 -0.000000e+000
    outer loop
      vertex   2.540000e+001 0.000000e+000 0.000000e+000
      vertex   8.255000e+000 0.000000e+000 1.270000e+001
      vertex   8.013317e+000 0.000000e+000 1.148498e+001
    endloop
  endfacet
  facet normal -8.314690e-001 -5.555711e-001 0.000000e+000
    outer loop
      vertex   1.528919e+001 1.443004e+001 1.270000e+001
      vertex   1.563332e+001 1.391502e+001 0.000000e+000
      vertex   1.563332e+001 1.391502e+001 2.540000e+001
    endloop
  endfacet
  facet normal -8.314692e-001 -5.555709e-001 -1.035894e-008
    outer loop
      vertex   1.528919e+001 1.443004e+001 1.270000e+001
      vertex   1.494506e+001 1.494506e+001 0.000000e+000
      vertex   1.563332e+001 1.391502e+001 0.000000e+000
    endloop
  endfacet
  facet normal -8.314693e-001 -5.555707e-001 -0.000000e+000
    outer loop
      vertex   1.528919e+001 1.443004e+001 1.270000e+001
      vertex   1.494506e+001 1.494506e+001 2.540000e+001
      vertex   1.494506e+001 1.494506e+001 0.000000e+000
    endloop
  endfacet
  facet normal 0.000000e+000 -1.000000e+000 0.000000e+000
    outer loop
      vertex   2.540000e+001 0.000000e+000 0.000000e+000
      vertex   8.013317e+000 0.000000e+000 1.391502e+001
      vertex   8.255000e+000 0.000000e+000 1.270000e+001
    endloop
  endfacet
  facet normal -9.807854e-001 -1.950898e-001 0.000000e+000
    outer loop
      vertex   1.575416e+001 1.330751e+001 1.270000e+001
      vertex   1.587500e+001 1.270000e+001 0.000000e+000
      vertex   1.587500e+001 1.270000e+001 2.540000e+001
    endloop
  endfacet
  facet normal -9.807854e-001 -1.950899e-001 7.324893e-009
    outer loop
      vertex   1.575416e+001 1.330751e+001 1.270000e+001
      vertex   1.563332e+001 1.391502e+001 0.000000e+000
      vertex   1.587500e+001 1.270000e+001 0.000000e+000
    endloop
  endfacet
  facet normal -9.807853e-001 -1.950901e-001 -0.000000e+000
    outer loop
      vertex   1.575416e+001 1.330751e+001 1.270000e+001
      vertex   1.563332e+001 1.391502e+001 2.540000e+001
      vertex   1.563332e+001 1.391502e+001 0.000000e+000
    endloop
  endfacet
  facet normal 0.000000e+000 -1.000000e+000 -0.000000e+000
    outer loop
      vertex   7.325064e+000 0.000000e+000 1.045494e+001
      vertex   6.295020e+000 0.000000e+000 9.766683e+000
      vertex   0.000000e+000 0.000000e+000 0.000000e+000
    endloop
  endfacet
  facet normal 7.185277e-001 6.954983e-001 -0.000000e+000
    outer loop
      vertex   2.233208e+001 2.223050e+001 5.169848e+000
      vertex   1.926416e+001 2.540000e+001 0.000000e+000
      vertex   1.926416e+001 2.540000e+001 1.211096e+001
    endloop
  endfacet
  facet normal 7.185279e-001 6.954982e-001 -1.325458e-007
    outer loop
      vertex   2.233208e+001 2.223050e+001 5.169848e+000
      vertex   2.540000e+001 1.906099e+001 0.000000e+000
      vertex   1.926416e+001 2.540000e+001 0.000000e+000
    endloop
  endfacet
  facet normal 7.185280e-001 6.954981e-001 0.000000e+000
    outer loop
      vertex   2.233208e+001 2.223050e+001 5.169848e+000
      vertex   2.540000e+001 1.906099e+001 8.568434e+000
      vertex   2.540000e+001 1.906099e+001 0.000000e+000
    endloop
  endfacet
  facet normal 0.000000e+000 -1.000000e+000 -0.000000e+000
    outer loop
      vertex   3.864980e+000 0.000000e+000 9.766683e+000
      vertex   2.834936e+000 0.000000e+000 1.045494e+001
      vertex   0.000000e+000 0.000000e+000 0.000000e+000
    endloop
  endfacet
  facet normal -1.000000e+000 0.000000e+000 0.000000e+000
    outer loop
      vertex   1.270000e+001 2.222143e+001 1.270000e+001
      vertex   1.270000e+001 2.540000e+001 0.000000e+000
      vertex   1.270000e+001 1.904285e+001 0.000000e+000
    endloop
  endfacet
  facet normal -1.000000e+000 0.000000e+000 -0.000000e+000
    outer loop
      vertex   1.270000e+001 2.222143e+001 1.270000e+001
      vertex   1.270000e+001 2.540000e+001 2.540000e+001
      vertex   1.270000e+001 2.540000e+001 0.000000e+000
    endloop
  endfacet
  facet normal 0.000000e+000 1.000000e+000 0.000000e+000
    outer loop
      vertex   1.818150e+001 2.540000e+001 1.273604e+001
      vertex   1.926416e+001 2.540000e+001 0.000000e+000
      vertex   1.270000e+001 2.540000e+001 0.000000e+000
    endloop
  endfacet
  facet normal -1.000000e+000 0.000000e+000 0.000000e+000
    outer loop
      vertex   1.270000e+001 2.222143e+001 1.270000e+001
      vertex   1.270000e+001 1.904285e+001 0.000000e+000
      vertex   1.270000e+001 1.904285e+001 2.540000e+001
    endloop
  endfacet
  facet normal 0.000000e+000 1.000000e+000 0.000000e+000
    outer loop
      vertex   -6.938894e-015 1.904285e+001 2.540000e+001
      vertex   1.905000e+000 1.904285e+001 1.270000e+001
      vertex   -6.938894e-015 1.904285e+001 0.000000e+000
    endloop
  endfacet
  facet normal 0.000000e+000 0.000000e+000 -1.000000e+000
    outer loop
      vertex   1.148498e+001 1.563332e+001 0.000000e+000
      vertex   1.045494e+001 1.494506e+001 0.000000e+000
      vertex   -6.938894e-015 1.904285e+001 0.000000e+000
    endloop
  endfacet
  facet normal 1.000000e+000 0.000000e+000 0.000000e+000
    outer loop
      vertex   2.540000e+001 9.530496e+000 4.284217e+000
      vertex   2.540000e+001 0.000000e+000 0.000000e+000
      vertex   2.540000e+001 1.906099e+001 0.000000e+000
    endloop
  endfacet
  facet normal 0.000000e+000 -1.000000e+000 0.000000e+000
    outer loop
      vertex   1.905000e+000 0.000000e+000 1.270000e+001
      vertex   0.000000e+000 0.000000e+000 0.000000e+000
      vertex   2.146683e+000 0.000000e+000 1.148498e+001
    endloop
  endfacet
  facet normal 0.000000e+000 -1.000000e+000 -0.000000e+000
    outer loop
      vertex   5.080000e+000 0.000000e+000 9.525000e+000
      vertex   3.864980e+000 0.000000e+000 9.766683e+000
      vertex   0.000000e+000 0.000000e+000 0.000000e+000
    endloop
  endfacet
  facet normal 0.000000e+000 -1.000000e+000 0.000000e+000
    outer loop
      vertex   2.146683e+000 0.000000e+000 1.148498e+001
      vertex   0.000000e+000 0.000000e+000 0.000000e+000
      vertex   2.834936e+000 0.000000e+000 1.045494e+001
    endloop
  endfacet
  facet normal -1.000000e+000 -3.643832e-016 0.000000e+000
    outer loop
      vertex   -3.469447e-015 9.521425e+000 1.270000e+001
      vertex   0.000000e+000 0.000000e+000 0.000000e+000
      vertex   0.000000e+000 0.000000e+000 2.540000e+001
    endloop
  endfacet
  facet normal -1.000000e+000 -3.643832e-016 0.000000e+000
    outer loop
      vertex   -3.469447e-015 9.521425e+000 1.270000e+001
      vertex   -6.938894e-015 1.904285e+001 0.000000e+000
      vertex   0.000000e+000 0.000000e+000 0.000000e+000
    endloop
  endfacet
  facet normal -1.000000e+000 -3.643832e-016 -0.000000e+000
    outer loop
      vertex   -3.469447e-015 9.521425e+000 1.270000e+001
      vertex   -6.938894e-015 1.904285e+001 2.540000e+001
      vertex   -6.938894e-015 1.904285e+001 0.000000e+000
    endloop
  endfacet
  facet normal 0.000000e+000 0.000000e+000 -1.000000e+000
    outer loop
      vertex   1.148498e+001 9.766683e+000 0.000000e+000
      vertex   0.000000e+000 0.000000e+000 0.000000e+000
      vertex   1.045494e+001 1.045494e+001 0.000000e+000
    endloop
  endfacet
  facet normal 0.000000e+000 0.000000e+000 -1.000000e+000
    outer loop
      vertex   2.540000e+001 0.000000e+000 0.000000e+000
      vertex   0.000000e+000 0.000000e+000 0.000000e+000
      vertex   1.148498e+001 9.766683e+000 0.000000e+000
    endloop
  endfacet
  facet normal -0.000000e+000 0.000000e+000 -1.000000e+000
    outer loop
      vertex   9.766683e+000 1.148498e+001 0.000000e+000
      vertex   1.045494e+001 1.045494e+001 0.000000e+000
      vertex   0.000000e+000 0.000000e+000 0.000000e+000
    endloop
  endfacet
  facet normal 0.000000e+000 0.000000e+000 -1.000000e+000
    outer loop
      vertex   1.270000e+001 9.525000e+000 0.000000e+000
      vertex   2.540000e+001 0.000000e+000 0.000000e+000
      vertex   1.148498e+001 9.766683e+000 0.000000e+000
    endloop
  endfacet
  facet normal -0.000000e+000 0.000000e+000 -1.000000e+000
    outer loop
      vertex   -6.938894e-015 1.904285e+001 0.000000e+000
      vertex   9.766683e+000 1.148498e+001 0.000000e+000
      vertex   0.000000e+000 0.000000e+000 0.000000e+000
    endloop
  endfacet
  facet normal 0.000000e+000 0.000000e+000 -1.000000e+000
    outer loop
      vertex   9.525000e+000 1.270000e+001 0.000000e+000
      vertex   9.766683e+000 1.148498e+001 0.000000e+000
      vertex   -6.938894e-015 1.904285e+001 0.000000e+000
    endloop
  endfacet
  facet normal 0.000000e+000 0.000000e+000 -1.000000e+000
    outer loop
      vertex   1.391502e+001 9.766683e+000 0.000000e+000
      vertex   2.540000e+001 0.000000e+000 0.000000e+000
      vertex   1.270000e+001 9.525000e+000 0.000000e+000
    endloop
  endfacet
  facet normal 0.000000e+000 0.000000e+000 -1.000000e+000
    outer loop
      vertex   9.766683e+000 1.391502e+001 0.000000e+000
      vertex   9.525000e+000 1.270000e+001 0.000000e+000
      vertex   -6.938894e-015 1.904285e+001 0.000000e+000
    endloop
  endfacet
  facet normal 0.000000e+000 -1.000000e+000 0.000000e+000
    outer loop
      vertex   1.818150e+001 0.000000e+000 1.273604e+001
      vertex   0.000000e+000 0.000000e+000 2.540000e+001
      vertex   2.540000e+001 0.000000e+000 0.000000e+000
    endloop
  endfacet
  facet normal 0.000000e+000 0.000000e+000 -1.000000e+000
    outer loop
      vertex   1.270000e+001 1.904285e+001 0.000000e+000
      vertex   1.391502e+001 1.563332e+001 0.000000e+000
      vertex   -6.938894e-015 1.904285e+001 0.000000e+000
    endloop
  endfacet
  facet normal 0.000000e+000 1.000000e+000 -0.000000e+000
    outer loop
      vertex   1.270000e+001 1.904285e+001 2.540000e+001
      vertex   1.270000e+001 1.904285e+001 0.000000e+000
      vertex   8.013317e+000 1.904285e+001 1.391502e+001
    endloop
  endfacet
  facet normal 1.000000e+000 0.000000e+000 0.000000e+000
    outer loop
      vertex   2.540000e+001 9.530496e+000 4.284217e+000
      vertex   2.540000e+001 0.000000e+000 8.568434e+000
      vertex   2.540000e+001 0.000000e+000 0.000000e+000
    endloop
  endfacet
  facet normal 0.000000e+000 0.000000e+000 -1.000000e+000
    outer loop
      vertex   2.540000e+001 1.906099e+001 0.000000e+000
      vertex   2.540000e+001 0.000000e+000 0.000000e+000
      vertex   1.270000e+001 2.540000e+001 0.000000e+000
    endloop
  endfacet
  facet normal 0.000000e+000 0.000000e+000 -1.000000e+000
    outer loop
      vertex   1.270000e+001 1.587500e+001 0.000000e+000
      vertex   1.148498e+001 1.563332e+001 0.000000e+000
      vertex   -6.938894e-015 1.904285e+001 0.000000e+000
    endloop
  endfacet
  facet normal 0.000000e+000 1.000000e+000 0.000000e+000
    outer loop
      vertex   8.013317e+000 1.904285e+001 1.391502e+001
      vertex   1.270000e+001 1.904285e+001 0.000000e+000
      vertex   8.255000e+000 1.904285e+001 1.270000e+001
    endloop
  endfacet
  facet normal 0.000000e+000 0.000000e+000 -1.000000e+000
    outer loop
      vertex   1.391502e+001 1.563332e+001 0.000000e+000
      vertex   1.270000e+001 1.587500e+001 0.000000e+000
      vertex   -6.938894e-015 1.904285e+001 0.000000e+000
    endloop
  endfacet
  facet normal 0.000000e+000 1.000000e+000 0.000000e+000
    outer loop
      vertex   8.255000e+000 1.904285e+001 1.270000e+001
      vertex   1.270000e+001 1.904285e+001 0.000000e+000
      vertex   8.013317e+000 1.904285e+001 1.148498e+001
    endloop
  endfacet
  facet normal 0.000000e+000 0.000000e+000 -1.000000e+000
    outer loop
      vertex   1.270000e+001 1.904285e+001 0.000000e+000
      vertex   2.540000e+001 0.000000e+000 0.000000e+000
      vertex   1.494506e+001 1.494506e+001 0.000000e+000
    endloop
  endfacet
  facet normal 0.000000e+000 1.000000e+000 0.000000e+000
    outer loop
      vertex   8.013317e+000 1.904285e+001 1.148498e+001
      vertex   1.270000e+001 1.904285e+001 0.000000e+000
      vertex   7.325064e+000 1.904285e+001 1.045494e+001
    endloop
  endfacet
  facet normal 0.000000e+000 1.000000e+000 0.000000e+000
    outer loop
      vertex   2.146683e+000 1.904285e+001 1.148498e+001
      vertex   2.834936e+000 1.904285e+001 1.045494e+001
      vertex   -6.938894e-015 1.904285e+001 0.000000e+000
    endloop
  endfacet
  facet normal 0.000000e+000 1.000000e+000 0.000000e+000
    outer loop
      vertex   7.325064e+000 1.904285e+001 1.045494e+001
      vertex   1.270000e+001 1.904285e+001 0.000000e+000
      vertex   6.295020e+000 1.904285e+001 9.766683e+000
    endloop
  endfacet
  facet normal 0.000000e+000 1.000000e+000 0.000000e+000
    outer loop
      vertex   5.080000e+000 1.904285e+001 9.525000e+000
      vertex   1.270000e+001 1.904285e+001 0.000000e+000
      vertex   3.864980e+000 1.904285e+001 9.766683e+000
    endloop
  endfacet
  facet normal 0.000000e+000 1.000000e+000 0.000000e+000
    outer loop
      vertex   1.905000e+000 1.904285e+001 1.270000e+001
      vertex   2.146683e+000 1.904285e+001 1.148498e+001
      vertex   -6.938894e-015 1.904285e+001 0.000000e+000
    endloop
  endfacet
  facet normal 0.000000e+000 1.000000e+000 0.000000e+000
    outer loop
      vertex   6.295020e+000 1.904285e+001 9.766683e+000
      vertex   1.270000e+001 1.904285e+001 0.000000e+000
      vertex   5.080000e+000 1.904285e+001 9.525000e+000
    endloop
  endfacet
  facet normal 0.000000e+000 1.000000e+000 0.000000e+000
    outer loop
      vertex   3.864980e+000 1.904285e+001 9.766683e+000
      vertex   1.270000e+001 1.904285e+001 0.000000e+000
      vertex   -6.938894e-015 1.904285e+001 0.000000e+000
    endloop
  endfacet
  facet normal 0.000000e+000 1.000000e+000 0.000000e+000
    outer loop
      vertex   2.834936e+000 1.904285e+001 1.045494e+001
      vertex   3.864980e+000 1.904285e+001 9.766683e+000
      vertex   -6.938894e-015 1.904285e+001 0.000000e+000
    endloop
  endfacet
  facet normal 1.000000e+000 0.000000e+000 -0.000000e+000
    outer loop
      vertex   2.540000e+001 9.530496e+000 4.284217e+000
      vertex   2.540000e+001 1.906099e+001 0.000000e+000
      vertex   2.540000e+001 1.906099e+001 8.568434e+000
    endloop
  endfacet
  facet normal 1.000000e+000 0.000000e+000 0.000000e+000
    outer loop
      vertex   2.540000e+001 9.530496e+000 4.284217e+000
      vertex   2.540000e+001 1.906099e+001 8.568434e+000
      vertex   2.540000e+001 0.000000e+000 8.568434e+000
    endloop
  endfacet
  facet normal 7.185279e-001 6.954981e-001 1.325458e-007
    outer loop
      vertex   2.233208e+001 2.223050e+001 5.169848e+000
      vertex   1.926416e+001 2.540000e+001 1.211096e+001
      vertex   2.540000e+001 1.906099e+001 8.568434e+000
    endloop
  endfacet
  facet normal 5.000000e-001 6.789225e-008 8.660254e-001
    outer loop
      vertex   2.128543e+001 1.397220e+001 1.094398e+001
      vertex   1.818150e+001 0.000000e+000 1.273604e+001
      vertex   2.540000e+001 0.000000e+000 8.568434e+000
    endloop
  endfacet
  facet normal 4.999999e-001 -0.000000e+000 8.660255e-001
    outer loop
      vertex   2.128543e+001 1.397220e+001 1.094398e+001
      vertex   2.540000e+001 0.000000e+000 8.568434e+000
      vertex   2.540000e+001 1.906099e+001 8.568434e+000
    endloop
  endfacet
  facet normal 4.999999e-001 -7.586702e-008 8.660254e-001
    outer loop
      vertex   2.128543e+001 1.397220e+001 1.094398e+001
      vertex   2.540000e+001 1.906099e+001 8.568434e+000
      vertex   1.926416e+001 2.540000e+001 1.211096e+001
    endloop
  endfacet
  facet normal 1.950916e-001 -0.000000e+000 9.807850e-001
    outer loop
      vertex   4.472490e+000 9.521425e+000 9.645842e+000
      vertex   5.080000e+000 0.000000e+000 9.525000e+000
      vertex   5.080000e+000 1.904285e+001 9.525000e+000
    endloop
  endfacet
  facet normal 1.950908e-001 -5.400327e-008 9.807852e-001
    outer loop
      vertex   4.472490e+000 9.521425e+000 9.645842e+000
      vertex   3.864980e+000 0.000000e+000 9.766683e+000
      vertex   5.080000e+000 0.000000e+000 9.525000e+000
    endloop
  endfacet
  facet normal -1.950907e-001 4.911815e-008 9.807852e-001
    outer loop
      vertex   5.687510e+000 9.521425e+000 9.645842e+000
      vertex   6.295020e+000 1.904285e+001 9.766683e+000
      vertex   5.080000e+000 1.904285e+001 9.525000e+000
    endloop
  endfacet
  facet normal 1.950908e-001 5.400327e-008 9.807852e-001
    outer loop
      vertex   4.472490e+000 9.521425e+000 9.645842e+000
      vertex   5.080000e+000 1.904285e+001 9.525000e+000
      vertex   3.864980e+000 1.904285e+001 9.766683e+000
    endloop
  endfacet
  facet normal -1.950907e-001 -4.911815e-008 9.807852e-001
    outer loop
      vertex   5.687510e+000 9.521425e+000 9.645842e+000
      vertex   5.080000e+000 0.000000e+000 9.525000e+000
      vertex   6.295020e+000 0.000000e+000 9.766683e+000
    endloop
  endfacet
  facet normal -1.950914e-001 0.000000e+000 9.807851e-001
    outer loop
      vertex   5.687510e+000 9.521425e+000 9.645842e+000
      vertex   5.080000e+000 1.904285e+001 9.525000e+000
      vertex   5.080000e+000 0.000000e+000 9.525000e+000
    endloop
  endfacet
  facet normal -1.950899e-001 0.000000e+000 9.807854e-001
    outer loop
      vertex   5.687510e+000 9.521425e+000 9.645842e+000
      vertex   6.295020e+000 0.000000e+000 9.766683e+000
      vertex   6.295020e+000 1.904285e+001 9.766683e+000
    endloop
  endfacet
  facet normal 1.950899e-001 0.000000e+000 9.807854e-001
    outer loop
      vertex   4.472490e+000 9.521425e+000 9.645842e+000
      vertex   3.864980e+000 1.904285e+001 9.766683e+000
      vertex   3.864980e+000 0.000000e+000 9.766683e+000
    endloop
  endfacet
  facet normal -5.555702e-001 -1.391160e-008 8.314696e-001
    outer loop
      vertex   6.810042e+000 9.521425e+000 1.011081e+001
      vertex   7.325064e+000 1.904285e+001 1.045494e+001
      vertex   6.295020e+000 1.904285e+001 9.766683e+000
    endloop
  endfacet
  facet normal 5.555701e-001 -6.955799e-009 8.314697e-001
    outer loop
      vertex   3.349958e+000 9.521425e+000 1.011081e+001
      vertex   3.864980e+000 1.904285e+001 9.766683e+000
      vertex   2.834936e+000 1.904285e+001 1.045494e+001
    endloop
  endfacet
  facet normal 5.555701e-001 6.955799e-009 8.314697e-001
    outer loop
      vertex   3.349958e+000 9.521425e+000 1.011081e+001
      vertex   2.834936e+000 0.000000e+000 1.045494e+001
      vertex   3.864980e+000 0.000000e+000 9.766683e+000
    endloop
  endfacet
  facet normal 5.555700e-001 -0.000000e+000 8.314697e-001
    outer loop
      vertex   3.349958e+000 9.521425e+000 1.011081e+001
      vertex   3.864980e+000 0.000000e+000 9.766683e+000
      vertex   3.864980e+000 1.904285e+001 9.766683e+000
    endloop
  endfacet
  facet normal -5.555702e-001 1.391160e-008 8.314696e-001
    outer loop
      vertex   6.810042e+000 9.521425e+000 1.011081e+001
      vertex   6.295020e+000 0.000000e+000 9.766683e+000
      vertex   7.325064e+000 0.000000e+000 1.045494e+001
    endloop
  endfacet
  facet normal -5.555700e-001 0.000000e+000 8.314697e-001
    outer loop
      vertex   6.810042e+000 9.521425e+000 1.011081e+001
      vertex   6.295020e+000 1.904285e+001 9.766683e+000
      vertex   6.295020e+000 0.000000e+000 9.766683e+000
    endloop
  endfacet
  facet normal -5.555704e-001 0.000000e+000 8.314695e-001
    outer loop
      vertex   6.810042e+000 9.521425e+000 1.011081e+001
      vertex   7.325064e+000 0.000000e+000 1.045494e+001
      vertex   7.325064e+000 1.904285e+001 1.045494e+001
    endloop
  endfacet
  facet normal 5.555702e-001 0.000000e+000 8.314696e-001
    outer loop
      vertex   3.349958e+000 9.521425e+000 1.011081e+001
      vertex   2.834936e+000 1.904285e+001 1.045494e+001
      vertex   2.834936e+000 0.000000e+000 1.045494e+001
    endloop
  endfacet
  facet normal -8.314697e-001 7.003012e-009 5.555701e-001
    outer loop
      vertex   7.669190e+000 9.521425e+000 1.096996e+001
      vertex   7.325064e+000 0.000000e+000 1.045494e+001
      vertex   8.013317e+000 0.000000e+000 1.148498e+001
    endloop
  endfacet
  facet normal 8.314695e-001 2.782321e-008 5.555704e-001
    outer loop
      vertex   2.490809e+000 9.521425e+000 1.096996e+001
      vertex   2.146683e+000 0.000000e+000 1.148498e+001
      vertex   2.834936e+000 0.000000e+000 1.045494e+001
    endloop
  endfacet
  facet normal -8.314696e-001 0.000000e+000 5.555702e-001
    outer loop
      vertex   7.669190e+000 9.521425e+000 1.096996e+001
      vertex   7.325064e+000 1.904285e+001 1.045494e+001
      vertex   7.325064e+000 0.000000e+000 1.045494e+001
    endloop
  endfacet
  facet normal -8.314697e-001 -7.003012e-009 5.555701e-001
    outer loop
      vertex   7.669190e+000 9.521425e+000 1.096996e+001
      vertex   8.013317e+000 1.904285e+001 1.148498e+001
      vertex   7.325064e+000 1.904285e+001 1.045494e+001
    endloop
  endfacet
  facet normal 8.314693e-001 -0.000000e+000 5.555707e-001
    outer loop
      vertex   2.490809e+000 9.521425e+000 1.096996e+001
      vertex   2.834936e+000 0.000000e+000 1.045494e+001
      vertex   2.834936e+000 1.904285e+001 1.045494e+001
    endloop
  endfacet
  facet normal 8.314695e-001 -2.782321e-008 5.555704e-001
    outer loop
      vertex   2.490809e+000 9.521425e+000 1.096996e+001
      vertex   2.834936e+000 1.904285e+001 1.045494e+001
      vertex   2.146683e+000 1.904285e+001 1.148498e+001
    endloop
  endfacet
  facet normal 5.000003e-001 0.000000e+000 8.660253e-001
    outer loop
      vertex   2.128543e+001 1.397220e+001 1.094398e+001
      vertex   1.818150e+001 2.540000e+001 1.273604e+001
      vertex   1.818150e+001 0.000000e+000 1.273604e+001
    endloop
  endfacet
  facet normal 5.000003e-001 6.792500e-009 8.660252e-001
    outer loop
      vertex   2.128543e+001 1.397220e+001 1.094398e+001
      vertex   1.926416e+001 2.540000e+001 1.211096e+001
      vertex   1.818150e+001 2.540000e+001 1.273604e+001
    endloop
  endfacet
  facet normal -8.314697e-001 0.000000e+000 5.555700e-001
    outer loop
      vertex   7.669190e+000 9.521425e+000 1.096996e+001
      vertex   8.013317e+000 0.000000e+000 1.148498e+001
      vertex   8.013317e+000 1.904285e+001 1.148498e+001
    endloop
  endfacet
  facet normal 8.314697e-001 0.000000e+000 5.555700e-001
    outer loop
      vertex   2.490809e+000 9.521425e+000 1.096996e+001
      vertex   2.146683e+000 1.904285e+001 1.148498e+001
      vertex   2.146683e+000 0.000000e+000 1.148498e+001
    endloop
  endfacet
  facet normal 9.807853e-001 9.770209e-009 1.950903e-001
    outer loop
      vertex   2.025841e+000 9.521425e+000 1.209249e+001
      vertex   1.905000e+000 0.000000e+000 1.270000e+001
      vertex   2.146683e+000 0.000000e+000 1.148498e+001
    endloop
  endfacet
  facet normal -9.807852e-001 5.888838e-008 1.950907e-001
    outer loop
      vertex   8.134159e+000 9.521425e+000 1.209249e+001
      vertex   8.013317e+000 0.000000e+000 1.148498e+001
      vertex   8.255000e+000 0.000000e+000 1.270000e+001
    endloop
  endfacet
  facet normal 9.807853e-001 -9.770209e-009 1.950903e-001
    outer loop
      vertex   2.025841e+000 9.521425e+000 1.209249e+001
      vertex   2.146683e+000 1.904285e+001 1.148498e+001
      vertex   1.905000e+000 1.904285e+001 1.270000e+001
    endloop
  endfacet
  facet normal -9.807852e-001 -5.888838e-008 1.950907e-001
    outer loop
      vertex   8.134159e+000 9.521425e+000 1.209249e+001
      vertex   8.255000e+000 1.904285e+001 1.270000e+001
      vertex   8.013317e+000 1.904285e+001 1.148498e+001
    endloop
  endfacet
  facet normal -9.807850e-001 0.000000e+000 1.950916e-001
    outer loop
      vertex   8.134159e+000 9.521425e+000 1.209249e+001
      vertex   8.013317e+000 1.904285e+001 1.148498e+001
      vertex   8.013317e+000 0.000000e+000 1.148498e+001
    endloop
  endfacet
  facet normal 9.807853e-001 -0.000000e+000 1.950905e-001
    outer loop
      vertex   2.025841e+000 9.521425e+000 1.209249e+001
      vertex   2.146683e+000 0.000000e+000 1.148498e+001
      vertex   2.146683e+000 1.904285e+001 1.148498e+001
    endloop
  endfacet
  facet normal -9.807854e-001 0.000000e+000 1.950898e-001
    outer loop
      vertex   8.134159e+000 9.521425e+000 1.209249e+001
      vertex   8.255000e+000 0.000000e+000 1.270000e+001
      vertex   8.255000e+000 1.904285e+001 1.270000e+001
    endloop
  endfacet
  facet normal 9.807853e-001 0.000000e+000 1.950902e-001
    outer loop
      vertex   2.025841e+000 9.521425e+000 1.209249e+001
      vertex   1.905000e+000 1.904285e+001 1.270000e+001
      vertex   1.905000e+000 0.000000e+000 1.270000e+001
    endloop
  endfacet
  facet normal -9.807852e-001 5.888838e-008 -1.950907e-001
    outer loop
      vertex   8.134159e+000 9.521425e+000 1.330751e+001
      vertex   8.255000e+000 0.000000e+000 1.270000e+001
      vertex   8.013317e+000 0.000000e+000 1.391502e+001
    endloop
  endfacet
  facet normal -9.807854e-001 -0.000000e+000 -1.950898e-001
    outer loop
      vertex   8.134159e+000 9.521425e+000 1.330751e+001
      vertex   8.255000e+000 1.904285e+001 1.270000e+001
      vertex   8.255000e+000 0.000000e+000 1.270000e+001
    endloop
  endfacet
  facet normal 1.950907e-001 9.807852e-001 2.949987e-008
    outer loop
      vertex   1.209249e+001 9.645842e+000 1.270000e+001
      vertex   1.148498e+001 9.766683e+000 2.540000e+001
      vertex   1.270000e+001 9.525000e+000 2.540000e+001
    endloop
  endfacet
  facet normal -1.950907e-001 9.807852e-001 2.949987e-008
    outer loop
      vertex   1.330751e+001 9.645842e+000 1.270000e+001
      vertex   1.270000e+001 9.525000e+000 2.540000e+001
      vertex   1.391502e+001 9.766683e+000 2.540000e+001
    endloop
  endfacet
  facet normal -5.555704e-001 8.314695e-001 -2.085958e-008
    outer loop
      vertex   1.443004e+001 1.011081e+001 1.270000e+001
      vertex   1.391502e+001 9.766683e+000 2.540000e+001
      vertex   1.494506e+001 1.045494e+001 2.540000e+001
    endloop
  endfacet
  facet normal -8.314692e-001 5.555709e-001 1.035894e-008
    outer loop
      vertex   1.528919e+001 1.096996e+001 1.270000e+001
      vertex   1.494506e+001 1.045494e+001 2.540000e+001
      vertex   1.563332e+001 1.148498e+001 2.540000e+001
    endloop
  endfacet
  facet normal -9.807852e-001 -5.888838e-008 -1.950907e-001
    outer loop
      vertex   8.134159e+000 9.521425e+000 1.330751e+001
      vertex   8.013317e+000 1.904285e+001 1.391502e+001
      vertex   8.255000e+000 1.904285e+001 1.270000e+001
    endloop
  endfacet
  facet normal 8.314695e-001 5.555704e-001 -2.085958e-008
    outer loop
      vertex   1.011081e+001 1.096996e+001 1.270000e+001
      vertex   9.766683e+000 1.148498e+001 2.540000e+001
      vertex   1.045494e+001 1.045494e+001 2.540000e+001
    endloop
  endfacet
  facet normal 5.555704e-001 8.314695e-001 -2.085958e-008
    outer loop
      vertex   1.096996e+001 1.011081e+001 1.270000e+001
      vertex   1.045494e+001 1.045494e+001 2.540000e+001
      vertex   1.148498e+001 9.766683e+000 2.540000e+001
    endloop
  endfacet
  facet normal -9.807854e-001 -1.950899e-001 -7.324893e-009
    outer loop
      vertex   1.575416e+001 1.330751e+001 1.270000e+001
      vertex   1.587500e+001 1.270000e+001 2.540000e+001
      vertex   1.563332e+001 1.391502e+001 2.540000e+001
    endloop
  endfacet
  facet normal -8.314692e-001 -5.555709e-001 1.035894e-008
    outer loop
      vertex   1.528919e+001 1.443004e+001 1.270000e+001
      vertex   1.563332e+001 1.391502e+001 2.540000e+001
      vertex   1.494506e+001 1.494506e+001 2.540000e+001
    endloop
  endfacet
  facet normal 9.807853e-001 -9.770209e-009 -1.950903e-001
    outer loop
      vertex   2.025841e+000 9.521425e+000 1.330751e+001
      vertex   1.905000e+000 1.904285e+001 1.270000e+001
      vertex   2.146683e+000 1.904285e+001 1.391502e+001
    endloop
  endfacet
  facet normal 0.000000e+000 1.000000e+000 0.000000e+000
    outer loop
      vertex   -6.938894e-015 1.904285e+001 2.540000e+001
      vertex   2.146683e+000 1.904285e+001 1.391502e+001
      vertex   1.905000e+000 1.904285e+001 1.270000e+001
    endloop
  endfacet
  facet normal -9.807854e-001 1.950899e-001 -7.324893e-009
    outer loop
      vertex   1.575416e+001 1.209249e+001 1.270000e+001
      vertex   1.563332e+001 1.148498e+001 2.540000e+001
      vertex   1.587500e+001 1.270000e+001 2.540000e+001
    endloop
  endfacet
  facet normal -1.950899e-001 -9.807854e-001 -7.324893e-009
    outer loop
      vertex   1.330751e+001 1.575416e+001 1.270000e+001
      vertex   1.391502e+001 1.563332e+001 2.540000e+001
      vertex   1.270000e+001 1.587500e+001 2.540000e+001
    endloop
  endfacet
  facet normal 9.807853e-001 9.770209e-009 -1.950903e-001
    outer loop
      vertex   2.025841e+000 9.521425e+000 1.330751e+001
      vertex   2.146683e+000 0.000000e+000 1.391502e+001
      vertex   1.905000e+000 0.000000e+000 1.270000e+001
    endloop
  endfacet
  facet normal 1.950899e-001 -9.807854e-001 -7.324893e-009
    outer loop
      vertex   1.209249e+001 1.575416e+001 1.270000e+001
      vertex   1.270000e+001 1.587500e+001 2.540000e+001
      vertex   1.148498e+001 1.563332e+001 2.540000e+001
    endloop
  endfacet
  facet normal 8.314695e-001 -5.555704e-001 -2.085958e-008
    outer loop
      vertex   1.011081e+001 1.443004e+001 1.270000e+001
      vertex   1.045494e+001 1.494506e+001 2.540000e+001
      vertex   9.766683e+000 1.391502e+001 2.540000e+001
    endloop
  endfacet
  facet normal -1.000000e+000 -3.643832e-016 0.000000e+000
    outer loop
      vertex   -3.469447e-015 9.521425e+000 1.270000e+001
      vertex   0.000000e+000 0.000000e+000 2.540000e+001
      vertex   -6.938894e-015 1.904285e+001 2.540000e+001
    endloop
  endfacet
  facet normal 0.000000e+000 -1.000000e+000 0.000000e+000
    outer loop
      vertex   0.000000e+000 0.000000e+000 2.540000e+001
      vertex   1.905000e+000 0.000000e+000 1.270000e+001
      vertex   2.146683e+000 0.000000e+000 1.391502e+001
    endloop
  endfacet
  facet normal -1.000000e+000 0.000000e+000 0.000000e+000
    outer loop
      vertex   1.270000e+001 2.222143e+001 1.270000e+001
      vertex   1.270000e+001 1.904285e+001 2.540000e+001
      vertex   1.270000e+001 2.540000e+001 2.540000e+001
    endloop
  endfacet
  facet normal 5.555709e-001 -8.314692e-001 1.035894e-008
    outer loop
      vertex   1.096996e+001 1.528919e+001 1.270000e+001
      vertex   1.148498e+001 1.563332e+001 2.540000e+001
      vertex   1.045494e+001 1.494506e+001 2.540000e+001
    endloop
  endfacet
  facet normal 9.807853e-001 0.000000e+000 -1.950902e-001
    outer loop
      vertex   2.025841e+000 9.521425e+000 1.330751e+001
      vertex   1.905000e+000 0.000000e+000 1.270000e+001
      vertex   1.905000e+000 1.904285e+001 1.270000e+001
    endloop
  endfacet
  facet normal -5.555709e-001 -8.314692e-001 1.035894e-008
    outer loop
      vertex   1.443004e+001 1.528919e+001 1.270000e+001
      vertex   1.494506e+001 1.494506e+001 2.540000e+001
      vertex   1.391502e+001 1.563332e+001 2.540000e+001
    endloop
  endfacet
  facet normal 9.807852e-001 -1.950907e-001 2.949987e-008
    outer loop
      vertex   9.645842e+000 1.330751e+001 1.270000e+001
      vertex   9.766683e+000 1.391502e+001 2.540000e+001
      vertex   9.525000e+000 1.270000e+001 2.540000e+001
    endloop
  endfacet
  facet normal 9.807852e-001 1.950907e-001 2.949987e-008
    outer loop
      vertex   9.645842e+000 1.209249e+001 1.270000e+001
      vertex   9.525000e+000 1.270000e+001 2.540000e+001
      vertex   9.766683e+000 1.148498e+001 2.540000e+001
    endloop
  endfacet
  facet normal 5.000001e-001 0.000000e+000 -8.660254e-001
    outer loop
      vertex   2.128543e+001 1.397220e+001 1.452810e+001
      vertex   1.818150e+001 0.000000e+000 1.273604e+001
      vertex   1.818150e+001 2.540000e+001 1.273604e+001
    endloop
  endfacet
  facet normal 5.000000e-001 8.781572e-009 -8.660254e-001
    outer loop
      vertex   2.128543e+001 1.397220e+001 1.452810e+001
      vertex   2.540000e+001 0.000000e+000 1.690364e+001
      vertex   1.818150e+001 0.000000e+000 1.273604e+001
    endloop
  endfacet
  facet normal 5.000003e-001 7.906415e-008 -8.660252e-001
    outer loop
      vertex   2.128543e+001 1.397220e+001 1.452810e+001
      vertex   1.818150e+001 2.540000e+001 1.273604e+001
      vertex   1.926416e+001 2.540000e+001 1.336112e+001
    endloop
  endfacet
  facet normal 0.000000e+000 1.000000e+000 0.000000e+000
    outer loop
      vertex   1.270000e+001 2.540000e+001 2.540000e+001
      vertex   1.926416e+001 2.540000e+001 1.336112e+001
      vertex   1.818150e+001 2.540000e+001 1.273604e+001
    endloop
  endfacet
  facet normal 0.000000e+000 -1.000000e+000 0.000000e+000
    outer loop
      vertex   2.540000e+001 0.000000e+000 1.690364e+001
      vertex   0.000000e+000 0.000000e+000 2.540000e+001
      vertex   1.818150e+001 0.000000e+000 1.273604e+001
    endloop
  endfacet
  facet normal -9.807850e-001 0.000000e+000 -1.950916e-001
    outer loop
      vertex   8.134159e+000 9.521425e+000 1.330751e+001
      vertex   8.013317e+000 0.000000e+000 1.391502e+001
      vertex   8.013317e+000 1.904285e+001 1.391502e+001
    endloop
  endfacet
  facet normal 9.807853e-001 0.000000e+000 -1.950905e-001
    outer loop
      vertex   2.025841e+000 9.521425e+000 1.330751e+001
      vertex   2.146683e+000 1.904285e+001 1.391502e+001
      vertex   2.146683e+000 0.000000e+000 1.391502e+001
    endloop
  endfacet
  facet normal 7.185279e-001 6.954981e-001 -1.334762e-007
    outer loop
      vertex   2.233208e+001 2.223050e+001 2.026619e+001
      vertex   2.540000e+001 1.906099e+001 1.690364e+001
      vertex   1.926416e+001 2.540000e+001 1.336112e+001
    endloop
  endfacet
  facet normal 7.185277e-001 6.954983e-001 -0.000000e+000
    outer loop
      vertex   2.233208e+001 2.223050e+001 2.026619e+001
      vertex   1.926416e+001 2.540000e+001 1.336112e+001
      vertex   1.926416e+001 2.540000e+001 2.540000e+001
    endloop
  endfacet
  facet normal 0.000000e+000 1.000000e+000 -0.000000e+000
    outer loop
      vertex   1.926416e+001 2.540000e+001 2.540000e+001
      vertex   1.926416e+001 2.540000e+001 1.336112e+001
      vertex   1.270000e+001 2.540000e+001 2.540000e+001
    endloop
  endfacet
  facet normal 5.000000e-001 1.256351e-008 -8.660254e-001
    outer loop
      vertex   2.128543e+001 1.397220e+001 1.452810e+001
      vertex   1.926416e+001 2.540000e+001 1.336112e+001
      vertex   2.540000e+001 1.906099e+001 1.690364e+001
    endloop
  endfacet
  facet normal 0.000000e+000 1.000000e+000 -0.000000e+000
    outer loop
      vertex   1.270000e+001 1.904285e+001 2.540000e+001
      vertex   8.013317e+000 1.904285e+001 1.391502e+001
      vertex   7.325064e+000 1.904285e+001 1.494506e+001
    endloop
  endfacet
  facet normal 8.314695e-001 -2.782321e-008 -5.555704e-001
    outer loop
      vertex   2.490809e+000 9.521425e+000 1.443004e+001
      vertex   2.146683e+000 1.904285e+001 1.391502e+001
      vertex   2.834936e+000 1.904285e+001 1.494506e+001
    endloop
  endfacet
  facet normal -8.314697e-001 -7.003012e-009 -5.555701e-001
    outer loop
      vertex   7.669190e+000 9.521425e+000 1.443004e+001
      vertex   7.325064e+000 1.904285e+001 1.494506e+001
      vertex   8.013317e+000 1.904285e+001 1.391502e+001
    endloop
  endfacet
  facet normal -8.314697e-001 -0.000000e+000 -5.555700e-001
    outer loop
      vertex   7.669190e+000 9.521425e+000 1.443004e+001
      vertex   8.013317e+000 1.904285e+001 1.391502e+001
      vertex   8.013317e+000 0.000000e+000 1.391502e+001
    endloop
  endfacet
  facet normal -8.314697e-001 7.003012e-009 -5.555701e-001
    outer loop
      vertex   7.669190e+000 9.521425e+000 1.443004e+001
      vertex   8.013317e+000 0.000000e+000 1.391502e+001
      vertex   7.325064e+000 0.000000e+000 1.494506e+001
    endloop
  endfacet
  facet normal 0.000000e+000 1.000000e+000 0.000000e+000
    outer loop
      vertex   -6.938894e-015 1.904285e+001 2.540000e+001
      vertex   2.834936e+000 1.904285e+001 1.494506e+001
      vertex   2.146683e+000 1.904285e+001 1.391502e+001
    endloop
  endfacet
  facet normal 8.314695e-001 2.782321e-008 -5.555704e-001
    outer loop
      vertex   2.490809e+000 9.521425e+000 1.443004e+001
      vertex   2.834936e+000 0.000000e+000 1.494506e+001
      vertex   2.146683e+000 0.000000e+000 1.391502e+001
    endloop
  endfacet
  facet normal 0.000000e+000 -1.000000e+000 0.000000e+000
    outer loop
      vertex   0.000000e+000 0.000000e+000 2.540000e+001
      vertex   2.146683e+000 0.000000e+000 1.391502e+001
      vertex   2.834936e+000 0.000000e+000 1.494506e+001
    endloop
  endfacet
  facet normal 8.314697e-001 0.000000e+000 -5.555700e-001
    outer loop
      vertex   2.490809e+000 9.521425e+000 1.443004e+001
      vertex   2.146683e+000 0.000000e+000 1.391502e+001
      vertex   2.146683e+000 1.904285e+001 1.391502e+001
    endloop
  endfacet
  facet normal -8.314696e-001 0.000000e+000 -5.555702e-001
    outer loop
      vertex   7.669190e+000 9.521425e+000 1.443004e+001
      vertex   7.325064e+000 0.000000e+000 1.494506e+001
      vertex   7.325064e+000 1.904285e+001 1.494506e+001
    endloop
  endfacet
  facet normal 8.314693e-001 0.000000e+000 -5.555707e-001
    outer loop
      vertex   2.490809e+000 9.521425e+000 1.443004e+001
      vertex   2.834936e+000 1.904285e+001 1.494506e+001
      vertex   2.834936e+000 0.000000e+000 1.494506e+001
    endloop
  endfacet
  facet normal 5.000000e-001 0.000000e+000 -8.660254e-001
    outer loop
      vertex   2.128543e+001 1.397220e+001 1.452810e+001
      vertex   2.540000e+001 1.906099e+001 1.690364e+001
      vertex   2.540000e+001 0.000000e+000 1.690364e+001
    endloop
  endfacet
  facet normal 5.555707e-001 3.468454e-008 -8.314693e-001
    outer loop
      vertex   3.349958e+000 9.521425e+000 1.528919e+001
      vertex   2.834936e+000 1.904285e+001 1.494506e+001
      vertex   3.864980e+000 1.904285e+001 1.563332e+001
    endloop
  endfacet
  facet normal 5.555702e-001 0.000000e+000 -8.314696e-001
    outer loop
      vertex   3.349958e+000 9.521425e+000 1.528919e+001
      vertex   2.834936e+000 0.000000e+000 1.494506e+001
      vertex   2.834936e+000 1.904285e+001 1.494506e+001
    endloop
  endfacet
  facet normal 5.555707e-001 -3.468454e-008 -8.314693e-001
    outer loop
      vertex   3.349958e+000 9.521425e+000 1.528919e+001
      vertex   3.864980e+000 0.000000e+000 1.563332e+001
      vertex   2.834936e+000 0.000000e+000 1.494506e+001
    endloop
  endfacet
  facet normal 0.000000e+000 -1.000000e+000 0.000000e+000
    outer loop
      vertex   0.000000e+000 0.000000e+000 2.540000e+001
      vertex   6.295020e+000 0.000000e+000 1.563332e+001
      vertex   7.325064e+000 0.000000e+000 1.494506e+001
    endloop
  endfacet
  facet normal 0.000000e+000 1.000000e+000 -0.000000e+000
    outer loop
      vertex   1.270000e+001 1.904285e+001 2.540000e+001
      vertex   7.325064e+000 1.904285e+001 1.494506e+001
      vertex   -6.938894e-015 1.904285e+001 2.540000e+001
    endloop
  endfacet
  facet normal 0.000000e+000 -1.000000e+000 0.000000e+000
    outer loop
      vertex   0.000000e+000 0.000000e+000 2.540000e+001
      vertex   2.834936e+000 0.000000e+000 1.494506e+001
      vertex   3.864980e+000 0.000000e+000 1.563332e+001
    endloop
  endfacet
  facet normal -5.555707e-001 2.772873e-008 -8.314693e-001
    outer loop
      vertex   6.810042e+000 9.521425e+000 1.528919e+001
      vertex   6.295020e+000 1.904285e+001 1.563332e+001
      vertex   7.325064e+000 1.904285e+001 1.494506e+001
    endloop
  endfacet
  facet normal 0.000000e+000 1.000000e+000 0.000000e+000
    outer loop
      vertex   -6.938894e-015 1.904285e+001 2.540000e+001
      vertex   3.864980e+000 1.904285e+001 1.563332e+001
      vertex   2.834936e+000 1.904285e+001 1.494506e+001
    endloop
  endfacet
  facet normal -5.555707e-001 -2.772873e-008 -8.314693e-001
    outer loop
      vertex   6.810042e+000 9.521425e+000 1.528919e+001
      vertex   7.325064e+000 0.000000e+000 1.494506e+001
      vertex   6.295020e+000 0.000000e+000 1.563332e+001
    endloop
  endfacet
  facet normal 0.000000e+000 1.000000e+000 0.000000e+000
    outer loop
      vertex   -6.938894e-015 1.904285e+001 2.540000e+001
      vertex   7.325064e+000 1.904285e+001 1.494506e+001
      vertex   6.295020e+000 1.904285e+001 1.563332e+001
    endloop
  endfacet
  facet normal -5.555704e-001 -0.000000e+000 -8.314695e-001
    outer loop
      vertex   6.810042e+000 9.521425e+000 1.528919e+001
      vertex   7.325064e+000 1.904285e+001 1.494506e+001
      vertex   7.325064e+000 0.000000e+000 1.494506e+001
    endloop
  endfacet
  facet normal 5.555711e-001 0.000000e+000 -8.314690e-001
    outer loop
      vertex   3.349958e+000 9.521425e+000 1.528919e+001
      vertex   3.864980e+000 1.904285e+001 1.563332e+001
      vertex   3.864980e+000 0.000000e+000 1.563332e+001
    endloop
  endfacet
  facet normal -5.555711e-001 0.000000e+000 -8.314690e-001
    outer loop
      vertex   6.810042e+000 9.521425e+000 1.528919e+001
      vertex   6.295020e+000 0.000000e+000 1.563332e+001
      vertex   6.295020e+000 1.904285e+001 1.563332e+001
    endloop
  endfacet
  facet normal 1.950900e-001 -4.885097e-009 -9.807853e-001
    outer loop
      vertex   4.472490e+000 9.521425e+000 1.575416e+001
      vertex   5.080000e+000 0.000000e+000 1.587500e+001
      vertex   3.864980e+000 0.000000e+000 1.563332e+001
    endloop
  endfacet
  facet normal 1.950899e-001 0.000000e+000 -9.807854e-001
    outer loop
      vertex   4.472490e+000 9.521425e+000 1.575416e+001
      vertex   3.864980e+000 0.000000e+000 1.563332e+001
      vertex   3.864980e+000 1.904285e+001 1.563332e+001
    endloop
  endfacet
  facet normal 0.000000e+000 1.000000e+000 0.000000e+000
    outer loop
      vertex   -6.938894e-015 1.904285e+001 2.540000e+001
      vertex   5.080000e+000 1.904285e+001 1.587500e+001
      vertex   3.864980e+000 1.904285e+001 1.563332e+001
    endloop
  endfacet
  facet normal 0.000000e+000 1.000000e+000 0.000000e+000
    outer loop
      vertex   -6.938894e-015 1.904285e+001 2.540000e+001
      vertex   6.295020e+000 1.904285e+001 1.563332e+001
      vertex   5.080000e+000 1.904285e+001 1.587500e+001
    endloop
  endfacet
  facet normal -1.950899e-001 -0.000000e+000 -9.807854e-001
    outer loop
      vertex   5.687510e+000 9.521425e+000 1.575416e+001
      vertex   6.295020e+000 1.904285e+001 1.563332e+001
      vertex   6.295020e+000 0.000000e+000 1.563332e+001
    endloop
  endfacet
  facet normal 1.950900e-001 4.885097e-009 -9.807853e-001
    outer loop
      vertex   4.472490e+000 9.521425e+000 1.575416e+001
      vertex   3.864980e+000 1.904285e+001 1.563332e+001
      vertex   5.080000e+000 1.904285e+001 1.587500e+001
    endloop
  endfacet
  facet normal 0.000000e+000 -1.000000e+000 0.000000e+000
    outer loop
      vertex   0.000000e+000 0.000000e+000 2.540000e+001
      vertex   5.080000e+000 0.000000e+000 1.587500e+001
      vertex   6.295020e+000 0.000000e+000 1.563332e+001
    endloop
  endfacet
  facet normal 0.000000e+000 -1.000000e+000 0.000000e+000
    outer loop
      vertex   0.000000e+000 0.000000e+000 2.540000e+001
      vertex   3.864980e+000 0.000000e+000 1.563332e+001
      vertex   5.080000e+000 0.000000e+000 1.587500e+001
    endloop
  endfacet
  facet normal -1.950899e-001 0.000000e+000 -9.807854e-001
    outer loop
      vertex   5.687510e+000 9.521425e+000 1.575416e+001
      vertex   5.080000e+000 1.904285e+001 1.587500e+001
      vertex   6.295020e+000 1.904285e+001 1.563332e+001
    endloop
  endfacet
  facet normal -1.950899e-001 0.000000e+000 -9.807854e-001
    outer loop
      vertex   5.687510e+000 9.521425e+000 1.575416e+001
      vertex   6.295020e+000 0.000000e+000 1.563332e+001
      vertex   5.080000e+000 0.000000e+000 1.587500e+001
    endloop
  endfacet
  facet normal 1.950901e-001 0.000000e+000 -9.807853e-001
    outer loop
      vertex   4.472490e+000 9.521425e+000 1.575416e+001
      vertex   5.080000e+000 1.904285e+001 1.587500e+001
      vertex   5.080000e+000 0.000000e+000 1.587500e+001
    endloop
  endfacet
  facet normal -1.950899e-001 0.000000e+000 -9.807854e-001
    outer loop
      vertex   5.687510e+000 9.521425e+000 1.575416e+001
      vertex   5.080000e+000 0.000000e+000 1.587500e+001
      vertex   5.080000e+000 1.904285e+001 1.587500e+001
    endloop
  endfacet
  facet normal 7.185280e-001 6.954981e-001 0.000000e+000
    outer loop
      vertex   2.233208e+001 2.223050e+001 2.026619e+001
      vertex   2.540000e+001 1.906099e+001 2.540000e+001
      vertex   2.540000e+001 1.906099e+001 1.690364e+001
    endloop
  endfacet
  facet normal 0.000000e+000 -1.000000e+000 0.000000e+000
    outer loop
      vertex   2.540000e+001 0.000000e+000 2.540000e+001
      vertex   0.000000e+000 0.000000e+000 2.540000e+001
      vertex   2.540000e+001 0.000000e+000 1.690364e+001
    endloop
  endfacet
  facet normal 1.000000e+000 0.000000e+000 -0.000000e+000
    outer loop
      vertex   2.540000e+001 9.530496e+000 2.115182e+001
      vertex   2.540000e+001 1.906099e+001 1.690364e+001
      vertex   2.540000e+001 1.906099e+001 2.540000e+001
    endloop
  endfacet
  facet normal 1.000000e+000 0.000000e+000 0.000000e+000
    outer loop
      vertex   2.540000e+001 9.530496e+000 2.115182e+001
      vertex   2.540000e+001 0.000000e+000 1.690364e+001
      vertex   2.540000e+001 1.906099e+001 1.690364e+001
    endloop
  endfacet
  facet normal 1.000000e+000 0.000000e+000 0.000000e+000
    outer loop
      vertex   2.540000e+001 9.530496e+000 2.115182e+001
      vertex   2.540000e+001 0.000000e+000 2.540000e+001
      vertex   2.540000e+001 0.000000e+000 1.690364e+001
    endloop
  endfacet
  facet normal 7.185279e-001 6.954982e-001 1.334762e-007
    outer loop
      vertex   2.233208e+001 2.223050e+001 2.026619e+001
      vertex   1.926416e+001 2.540000e+001 2.540000e+001
      vertex   2.540000e+001 1.906099e+001 2.540000e+001
    endloop
  endfacet
  facet normal 1.000000e+000 0.000000e+000 0.000000e+000
    outer loop
      vertex   2.540000e+001 9.530496e+000 2.115182e+001
      vertex   2.540000e+001 1.906099e+001 2.540000e+001
      vertex   2.540000e+001 0.000000e+000 2.540000e+001
    endloop
  endfacet
  facet normal 0.000000e+000 0.000000e+000 1.000000e+000
    outer loop
      vertex   1.391502e+001 1.563332e+001 2.540000e+001
      vertex   -6.938894e-015 1.904285e+001 2.540000e+001
      vertex   1.270000e+001 1.587500e+001 2.540000e+001
    endloop
  endfacet
  facet normal -0.000000e+000 -0.000000e+000 1.000000e+000
    outer loop
      vertex   1.563332e+001 1.391502e+001 2.540000e+001
      vertex   1.587500e+001 1.270000e+001 2.540000e+001
      vertex   2.540000e+001 0.000000e+000 2.540000e+001
    endloop
  endfacet
  facet normal -0.000000e+000 -0.000000e+000 1.000000e+000
    outer loop
      vertex   1.494506e+001 1.494506e+001 2.540000e+001
      vertex   1.563332e+001 1.391502e+001 2.540000e+001
      vertex   2.540000e+001 0.000000e+000 2.540000e+001
    endloop
  endfacet
  facet normal 0.000000e+000 0.000000e+000 1.000000e+000
    outer loop
      vertex   1.270000e+001 1.587500e+001 2.540000e+001
      vertex   -6.938894e-015 1.904285e+001 2.540000e+001
      vertex   1.148498e+001 1.563332e+001 2.540000e+001
    endloop
  endfacet
  facet normal -0.000000e+000 0.000000e+000 1.000000e+000
    outer loop
      vertex   1.587500e+001 1.270000e+001 2.540000e+001
      vertex   1.563332e+001 1.148498e+001 2.540000e+001
      vertex   2.540000e+001 0.000000e+000 2.540000e+001
    endloop
  endfacet
  facet normal -0.000000e+000 0.000000e+000 1.000000e+000
    outer loop
      vertex   1.926416e+001 2.540000e+001 2.540000e+001
      vertex   1.270000e+001 2.540000e+001 2.540000e+001
      vertex   2.540000e+001 1.906099e+001 2.540000e+001
    endloop
  endfacet
  facet normal -0.000000e+000 -0.000000e+000 1.000000e+000
    outer loop
      vertex   1.270000e+001 1.904285e+001 2.540000e+001
      vertex   1.391502e+001 1.563332e+001 2.540000e+001
      vertex   1.494506e+001 1.494506e+001 2.540000e+001
    endloop
  endfacet
  facet normal 0.000000e+000 0.000000e+000 1.000000e+000
    outer loop
      vertex   2.540000e+001 1.906099e+001 2.540000e+001
      vertex   1.270000e+001 2.540000e+001 2.540000e+001
      vertex   2.540000e+001 0.000000e+000 2.540000e+001
    endloop
  endfacet
  facet normal -0.000000e+000 -0.000000e+000 1.000000e+000
    outer loop
      vertex   1.270000e+001 1.904285e+001 2.540000e+001
      vertex   1.494506e+001 1.494506e+001 2.540000e+001
      vertex   2.540000e+001 0.000000e+000 2.540000e+001
    endloop
  endfacet
  facet normal 0.000000e+000 0.000000e+000 1.000000e+000
    outer loop
      vertex   9.525000e+000 1.270000e+001 2.540000e+001
      vertex   -6.938894e-015 1.904285e+001 2.540000e+001
      vertex   9.766683e+000 1.148498e+001 2.540000e+001
    endloop
  endfacet
  facet normal 0.000000e+000 -0.000000e+000 1.000000e+000
    outer loop
      vertex   -6.938894e-015 1.904285e+001 2.540000e+001
      vertex   0.000000e+000 0.000000e+000 2.540000e+001
      vertex   9.766683e+000 1.148498e+001 2.540000e+001
    endloop
  endfacet
  facet normal 0.000000e+000 0.000000e+000 1.000000e+000
    outer loop
      vertex   1.270000e+001 9.525000e+000 2.540000e+001
      vertex   1.148498e+001 9.766683e+000 2.540000e+001
      vertex   2.540000e+001 0.000000e+000 2.540000e+001
    endloop
  endfacet
  facet normal 0.000000e+000 0.000000e+000 1.000000e+000
    outer loop
      vertex   9.766683e+000 1.148498e+001 2.540000e+001
      vertex   0.000000e+000 0.000000e+000 2.540000e+001
      vertex   1.045494e+001 1.045494e+001 2.540000e+001
    endloop
  endfacet
  facet normal 0.000000e+000 0.000000e+000 1.000000e+000
    outer loop
      vertex   2.540000e+001 0.000000e+000 2.540000e+001
      vertex   1.148498e+001 9.766683e+000 2.540000e+001
      vertex   0.000000e+000 0.000000e+000 2.540000e+001
    endloop
  endfacet
  facet normal 0.000000e+000 0.000000e+000 1.000000e+000
    outer loop
      vertex   1.148498e+001 9.766683e+000 2.540000e+001
      vertex   1.045494e+001 1.045494e+001 2.540000e+001
      vertex   0.000000e+000 0.000000e+000 2.540000e+001
    endloop
  endfacet
  facet normal -0.000000e+000 0.000000e+000 1.000000e+000
    outer loop
      vertex   1.270000e+001 1.904285e+001 2.540000e+001
      vertex   -6.938894e-015 1.904285e+001 2.540000e+001
      vertex   1.391502e+001 1.563332e+001 2.540000e+001
    endloop
  endfacet
  facet normal -0.000000e+000 0.000000e+000 1.000000e+000
    outer loop
      vertex   1.270000e+001 2.540000e+001 2.540000e+001
      vertex   1.270000e+001 1.904285e+001 2.540000e+001
      vertex   2.540000e+001 0.000000e+000 2.540000e+001
    endloop
  endfacet
  facet normal -0.000000e+000 0.000000e+000 1.000000e+000
    outer loop
      vertex   1.391502e+001 9.766683e+000 2.540000e+001
      vertex   1.270000e+001 9.525000e+000 2.540000e+001
      vertex   2.540000e+001 0.000000e+000 2.540000e+001
    endloop
  endfacet
  facet normal 0.000000e+000 0.000000e+000 1.000000e+000
    outer loop
      vertex   9.766683e+000 1.391502e+001 2.540000e+001
      vertex   -6.938894e-015 1.904285e+001 2.540000e+001
      vertex   9.525000e+000 1.270000e+001 2.540000e+001
    endloop
  endfacet
  facet normal -0.000000e+000 0.000000e+000 1.000000e+000
    outer loop
      vertex   1.494506e+001 1.045494e+001 2.540000e+001
      vertex   1.391502e+001 9.766683e+000 2.540000e+001
      vertex   2.540000e+001 0.000000e+000 2.540000e+001
    endloop
  endfacet
  facet normal 0.000000e+000 0.000000e+000 1.000000e+000
    outer loop
      vertex   1.148498e+001 1.563332e+001 2.540000e+001
      vertex   -6.938894e-015 1.904285e+001 2.540000e+001
      vertex   1.045494e+001 1.494506e+001 2.540000e+001
    endloop
  endfacet
  facet normal 0.000000e+000 0.000000e+000 1.000000e+000
    outer loop
      vertex   1.045494e+001 1.494506e+001 2.540000e+001
      vertex   -6.938894e-015 1.904285e+001 2.540000e+001
      vertex   9.766683e+000 1.391502e+001 2.540000e+001
    endloop
  endfacet
  facet normal -0.000000e+000 0.000000e+000 1.000000e+000
    outer loop
      vertex   1.563332e+001 1.148498e+001 2.540000e+001
      vertex   1.494506e+001 1.045494e+001 2.540000e+001
      vertex   2.540000e+001 0.000000e+000 2.540000e+001
    endloop
  endfacet
endsolid
