<?xml version="1.0" encoding="UTF-8" standalone="no"?>
<!-- Created with Inkscape (http://www.inkscape.org/) -->

<svg
   xmlns:dc="http://purl.org/dc/elements/1.1/"
   xmlns:cc="http://creativecommons.org/ns#"
   xmlns:rdf="http://www.w3.org/1999/02/22-rdf-syntax-ns#"
   xmlns:svg="http://www.w3.org/2000/svg"
   xmlns="http://www.w3.org/2000/svg"
   xmlns:sodipodi="http://sodipodi.sourceforge.net/DTD/sodipodi-0.dtd"
   xmlns:inkscape="http://www.inkscape.org/namespaces/inkscape"
   width="744.09448819"
   height="1052.3622047"
   id="svg2822"
   version="1.1"
   inkscape:version="0.47 r22583"
   sodipodi:docname="New document 2">
  <defs
     id="defs2824">
    <inkscape:perspective
       sodipodi:type="inkscape:persp3d"
       inkscape:vp_x="0 : 526.18109 : 1"
       inkscape:vp_y="0 : 1000 : 0"
       inkscape:vp_z="744.09448 : 526.18109 : 1"
       inkscape:persp3d-origin="372.04724 : 350.78739 : 1"
       id="perspective2830" />
  </defs>
  <sodipodi:namedview
     id="base"
     pagecolor="#ffffff"
     bordercolor="#666666"
     borderopacity="1.0"
     inkscape:pageopacity="0.0"
     inkscape:pageshadow="2"
     inkscape:zoom="0.35"
     inkscape:cx="976.42857"
     inkscape:cy="520"
     inkscape:document-units="px"
     inkscape:current-layer="layer1"
     showgrid="false"
     inkscape:window-width="785"
     inkscape:window-height="875"
     inkscape:window-x="182"
     inkscape:window-y="9"
     inkscape:window-maximized="0" />
  <metadata
     id="metadata2827">
    <rdf:RDF>
      <cc:Work
         rdf:about="">
        <dc:format>image/svg+xml</dc:format>
        <dc:type
           rdf:resource="http://purl.org/dc/dcmitype/StillImage" />
        <dc:title></dc:title>
      </cc:Work>
    </rdf:RDF>
  </metadata>
  <g
     inkscape:label="Layer 1"
     inkscape:groupmode="layer"
     id="layer1">
    <g
       style="font-size:238.61245728px;font-style:normal;font-weight:normal;fill:#000000;fill-opacity:1;stroke:none;font-family:Bitstream Vera Sans"
       id="text2832">
      <path
         d="m 75.354356,206.05916 23.535018,0 0,154.14272 84.702766,0 0,19.8067 -108.237784,0 0,-173.94942"
         style=""
         id="path2837" />
      <path
         d="m 253.61464,264.54718 c -11.49571,1.1e-4 -20.58348,4.50516 -27.26334,13.51516 -6.67994,8.93252 -10.01989,21.20489 -10.01986,36.81715 -3e-5,15.61239 3.30108,27.9236 9.90335,36.93367 6.67986,8.93245 15.80646,13.39866 27.37985,13.39865 11.4179,10e-6 20.46683,-4.50504 27.14683,-13.51516 6.6798,-9.01007 10.01975,-21.28244 10.01986,-36.81716 -1.1e-4,-15.45691 -3.34006,-27.69045 -10.01986,-36.70064 -6.68,-9.08767 -15.72893,-13.63156 -27.14683,-13.63167 m 0,-18.17556 c 18.64151,1.3e-4 33.28291,6.05865 43.92427,18.17556 10.64111,12.11714 15.96173,28.89456 15.96186,50.33231 -1.3e-4,21.36021 -5.32075,38.13763 -15.96186,50.33232 -10.64136,12.11704 -25.28276,18.17555 -43.92427,18.17556 -18.71933,-10e-6 -33.39957,-6.05852 -44.04078,-18.17556 -10.56359,-12.19469 -15.84537,-28.97211 -15.84535,-50.33232 -2e-5,-21.43775 5.28176,-38.21517 15.84535,-50.33231 10.64121,-12.11691 25.32145,-18.17543 44.04078,-18.17556"
         style=""
         id="path2839" />
      <path
         d="m 434.78767,313.24835 c -1.1e-4,-15.53458 -3.22355,-27.57393 -9.67033,-36.11809 -6.36931,-8.54396 -15.34057,-12.81599 -26.91381,-12.8161 -11.49571,1.1e-4 -20.46697,4.27214 -26.91381,12.8161 -6.36925,8.54416 -9.55385,20.58351 -9.55382,36.11809 -3e-5,15.45704 3.18457,27.45756 9.55382,36.00159 6.44684,8.54409 15.4181,12.81612 26.91381,12.8161 11.57324,2e-5 20.5445,-4.27201 26.91381,-12.8161 6.44678,-8.54403 9.67022,-20.54455 9.67033,-36.00159 m 21.43783,50.56534 c -1.3e-4,22.21456 -4.93238,38.72013 -14.79676,49.51674 -9.86462,10.87422 -24.97207,16.31135 -45.32239,16.3114 -7.53438,-5e-5 -14.64148,-0.5826 -21.32133,-1.74765 -6.67995,-1.08747 -13.16566,-2.79628 -19.45717,-5.12644 l 0,-20.85529 c 6.29151,3.4176 12.50537,5.94198 18.6416,7.57315 6.13614,1.63111 12.38884,2.44668 18.75811,2.44671 14.05879,-3e-5 24.58352,-3.68951 31.57421,-11.06845 6.99049,-7.3013 10.48579,-18.36974 10.4859,-33.20534 l 0,-10.60241 c -4.42749,7.68967 -10.09763,13.43749 -17.01046,17.24348 -6.91301,3.80599 -15.18521,5.70899 -24.81663,5.70899 -16.00076,0 -28.89451,-6.09735 -38.68132,-18.29207 -9.78685,-12.19468 -14.68027,-28.35072 -14.68025,-48.46816 -2e-5,-20.19498 4.8934,-36.38985 14.68025,-48.58466 9.78681,-12.19459 22.68056,-18.29194 38.68132,-18.29207 9.63142,1.3e-4 17.90362,1.90313 24.81663,5.70899 6.91283,3.80611 12.58297,9.55394 17.01046,17.24348 l 0,-19.8067 21.43783,0 0,114.2963"
         style=""
         id="path2841" />
      <path
         d="m 550.94812,264.54718 c -11.49571,1.1e-4 -20.58348,4.50516 -27.26334,13.51516 -6.67994,8.93252 -10.01989,21.20489 -10.01985,36.81715 -4e-5,15.61239 3.30107,27.9236 9.90334,36.93367 6.67986,8.93245 15.80646,13.39866 27.37985,13.39865 11.4179,10e-6 20.46683,-4.50504 27.14683,-13.51516 6.6798,-9.01007 10.01975,-21.28244 10.01986,-36.81716 -1.1e-4,-15.45691 -3.34006,-27.69045 -10.01986,-36.70064 -6.68,-9.08767 -15.72893,-13.63156 -27.14683,-13.63167 m 0,-18.17556 c 18.64151,1.3e-4 33.28292,6.05865 43.92427,18.17556 10.64112,12.11714 15.96173,28.89456 15.96187,50.33231 -1.4e-4,21.36021 -5.32075,38.13763 -15.96187,50.33232 -10.64135,12.11704 -25.28276,18.17555 -43.92427,18.17556 -18.71932,-10e-6 -33.39957,-6.05852 -44.04077,-18.17556 -10.5636,-12.19469 -15.84538,-28.97211 -15.84536,-50.33232 -2e-5,-21.43775 5.28176,-38.21517 15.84536,-50.33231 10.6412,-12.11691 25.32145,-18.17543 44.04077,-18.17556"
         style=""
         id="path2843" />
    </g>
  </g>
</svg>
